<svg xmlns="http://www.w3.org/2000/svg" width="975" height="490.73"><g data-name="Group 943" transform="translate(-4047.652 -1892.735)"><path data-name="Path 2040" d="M4361.004 2317.263v51.319c0 .7-.014 1.395 0 2.091v.089a.732.732 0 001.462 0v-51.319c0-.7.014-1.4 0-2.091v-.089a.732.732 0 00-1.462 0z" fill="#2a2b26"/><g data-name="Group 926" transform="translate(4369.549 1930.727)"><path data-name="Path 2041" d="M44.862 372.705v72.981h48.229l-.768-16.734-2.1-55.905z" fill="#183c5a"/><path data-name="Path 2042" d="M117.034 182.269c20.933 13.326 39.766 31.612 56.771 54.211 3.731-9.054 6.239-25.463 8.253-44.843l30.422 5.077-20.2 86.994h-9.76l-35.763-25.594v25.594h-47.3c-7.72 0-9.064.014-10.289 1.049s-2.923 2.607-2.923 5.053 4 82.894 4 82.894H44.86v-92l-29.213-22.115c9.02-28.552 25.549-53.337 53.33-72.481 0 0 1.319 6.892 6.993 9.725s10.313 3.891 15.432 3.652 11.013-.969 15.146-4.222 8.45-7.101 10.486-12.994z" fill="#367fc1"/><path data-name="Path 2043" d="M7.718 257.624l5 35.5s14.189-3.1 17.438-3.145 5.867.234 5.8 1.569-1.992 3.508-1.992 3.508l-.057.694a18.283 18.283 0 014.493-.51c1.731.15 3.3.544 3.253 1.636a3.112 3.112 0 01-2.131 2.887c-1.577.639-5.761 2.148-5.761 2.148l.873.742s2.638 1.511 2.383 2.655-1.953 2.921-4.194 3.934-4.677 1.887-4.677 1.887a3.243 3.243 0 01.814 1.716 5.332 5.332 0 01-2.113 3.718 18.719 18.719 0 01-6.837 2.3c-2.333.172-.172.019-.172.019l5.936 36.386 62.861-9.161-.548-17.222-.637-10.955-.411-8.872-.71-8.3-3.216-15.914-3.028-15-3.3-16.328-1.348-6.671z" fill="#ffc807"/><path data-name="Path 2044" d="M150.675 39.056a3.256 3.256 0 01-1.35-2.539 9.749 9.749 0 01.8-5.259 10.791 10.791 0 00.582-1.344 7.991 7.991 0 00.242-1.684 18.248 18.248 0 011.691-6.6 14.137 14.137 0 0113.094-7.661 5.146 5.146 0 011.582.283 5.744 5.744 0 011.992 1.509c.779.817 1.511 1.676 2.243 2.534a6.464 6.464 0 01.585 1.262 7.589 7.589 0 01.661 1.514c.431 1.591-.2 3.256-.832 4.78a11.136 11.136 0 01-5.008 5.665 26.166 26.166 0 01-5.063 2.053 15.513 15.513 0 01-4.6.9c.016.607.021 1.12.038 1.727a2.509 2.509 0 01-.05.716 2.152 2.152 0 01-1.037 1.167c-1.578.979-3.951 1.88-5.57.977z" fill="#ffc807"/><path data-name="Path 2045" d="M86.802 303.658a.568.568 0 01-.557-.456l-11.253-55.7-70.481 11.209c.663 12.36 2.775 24.69 4.76 35.146a.57.57 0 01-1.118.213c-2.02-10.639-4.17-23.213-4.805-35.812a.569.569 0 01.479-.59l71.524-11.375a.568.568 0 01.647.449l11.36 56.235a.568.568 0 01-.445.67.581.581 0 01-.111.011z"/><path data-name="Path 2046" d="M37.054 253.528a.569.569 0 01-.569-.569v-6.1a.569.569 0 011.138 0v6.1a.568.568 0 01-.569.569z"/><path data-name="Path 2047" d="M141.684 284.277a.568.568 0 01-.568-.569v-31.394a.568.568 0 01.9-.46l42.579 30.926c1.528-5.015 10.173-33.521 14.363-50.53a2070.55 2070.55 0 008.364-35.4 181.012 181.012 0 01-27.623-5.235c-.76 12.28-3.739 27.15-9.354 46.7a.568.568 0 01-1.023.153c-13.129-20.221-30.871-37.288-54.24-52.176a.569.569 0 01.611-.959c23.107 14.721 40.751 31.568 53.9 51.474 5.476-19.25 8.342-33.875 9.011-45.954a.569.569 0 01.714-.518 179.806 179.806 0 0028.755 5.444.568.568 0 01.5.691c-.038.172-3.922 17.42-8.512 36.047s-14.513 51.028-14.612 51.353a.568.568 0 01-.878.293l-42.322-30.738v30.278a.567.567 0 01-.565.574z"/><g data-name="Group 915"><path data-name="Path 2048" d="M191.096 164.448s6.3 1.8 6.642 10.813" fill="#fff"/><path data-name="Path 2049" d="M197.737 175.83a.568.568 0 01-.567-.547c-.322-8.5-6.171-10.271-6.231-10.289a.569.569 0 01.314-1.093c.067.019 6.7 2.026 7.053 11.339a.568.568 0 01-.546.59z"/></g><g data-name="Group 916"><path data-name="Path 2050" d="M183.541 152.883s-.886-9.493-.886-14.748 2.8-10.578 7.3-10.578 5.528 9.281 5.528 14.059-.686 9.563-.41 11.261l19.815 6.666a6.939 6.939 0 011.684 4.687c0 5.626-5.506 10.419-5.506 11.238s2.366 2.775 2.366 6.188-3.458 7.689-4.869 9.009a12.7 12.7 0 00-3.188 5.4s-20.285-2.881-24.431-4.714l-1.216-.316" fill="#fff"/><path data-name="Path 2051" d="M205.378 196.633a.557.557 0 01-.08-.006c-.829-.117-20.277-2.894-24.538-4.738l-1.173-.3a.569.569 0 01.286-1.1l1.215.316a.52.52 0 01.088.031c3.671 1.622 20.648 4.143 23.785 4.6a13.583 13.583 0 013.218-5.185c1.635-1.53 4.688-5.62 4.688-8.594a8.349 8.349 0 00-1.674-4.688 3.109 3.109 0 01-.69-1.5c0-.4.295-.8 1.15-1.875 1.521-1.918 4.354-5.489 4.354-9.363a6.575 6.575 0 00-1.437-4.195l-19.673-6.618a.57.57 0 01-.38-.448 27.926 27.926 0 01.114-4.881c.135-1.974.289-4.21.289-6.471 0-4.666-1.036-13.49-4.96-13.49-3.31 0-6.734 3.744-6.734 10.01 0 5.168.875 14.6.883 14.7a.569.569 0 11-1.132.106c-.008-.1-.888-9.579-.888-14.8 0-5.479 2.944-11.147 7.871-11.147 2.266 0 3.948 1.9 5 5.653a36.586 36.586 0 011.1 8.975c0 2.3-.153 4.557-.29 6.549a38.184 38.184 0 00-.164 4.289l19.473 6.55a.568.568 0 01.221.137 7.481 7.481 0 011.85 5.089c0 4.271-2.993 8.044-4.6 10.07a12.32 12.32 0 00-.895 1.205 5.929 5.929 0 00.5.84 9.346 9.346 0 011.859 5.31c0 3.9-3.983 8.427-5.049 9.425a12.063 12.063 0 00-3.022 5.113.57.57 0 01-.565.431z"/></g><path data-name="Path 2052" d="M12.366 257.454a.554.554 0 01-.135-.016.569.569 0 01-.418-.687c8.221-33.638 26.759-57.622 56.673-73.324a.569.569 0 11.529 1.007c-29.608 15.542-47.958 39.285-56.1 72.587a.568.568 0 01-.549.433z"/><g data-name="Group 917"><path data-name="Path 2053" d="M112.729 189.782l-1.12 30.629a257.421 257.421 0 00-22.044-20.918l-18.291 18.974s-.955-6.961-1.57-14.2-.55-17.42-.55-17.42 15.366 24.319 43.575 2.935z" fill="#fff"/><path data-name="Path 2054" d="M111.609 220.976a.569.569 0 01-.422-.187A248.766 248.766 0 0089.6 200.273l-17.917 18.585a.569.569 0 01-.973-.318c-.01-.069-.965-7.058-1.573-14.225s-.553-17.37-.553-17.472a.569.569 0 011.05-.3c.058.091 5.9 9.145 16.7 11.095 8.083 1.459 16.846-1.337 26.045-8.312a.569.569 0 01.912.474l-1.119 30.629a.568.568 0 01-.568.548zm-21.573-21.831a262.682 262.682 0 0121.055 19.853l1.025-28.057c-7.677 5.602-15.077 8.352-22.077 8.204zm-20.312-10.546c.012 3.227.094 10.273.548 15.62.459 5.409 1.117 10.717 1.412 13l17.455-18.108a24.9 24.9 0 01-3.019-.357A27.772 27.772 0 0169.724 188.6z"/></g><path data-name="Path 2055" d="M89.866 373.615H39.315a.569.569 0 01-.569-.569v-15.524a.569.569 0 011.138 0v14.956h49.982a.569.569 0 110 1.137z"/><path data-name="Path 2056" d="M39.315 440.794a.569.569 0 01-.569-.569v-67.179a.569.569 0 011.138 0v67.179a.569.569 0 01-.569.569z"/><path data-name="Path 2057" d="M147.482 33.707a4.02 4.02 0 00-1.187 1 1.736 1.736 0 00-.426 1.268 1.7 1.7 0 00.729 1.112 5.912 5.912 0 001.421.749 11.03 11.03 0 003.245.748 10.776 10.776 0 001.668 0 6.687 6.687 0 001.592-.292 3.281 3.281 0 001.293-.745 2.771 2.771 0 00.716-1.257 3.723 3.723 0 00-.5-2.924 6.133 6.133 0 00-2.318-2.153 10.617 10.617 0 00-3.125-1.074 13.558 13.558 0 00-1.661-.221 6.773 6.773 0 00-1.6.059 1.531 1.531 0 00-1.079.56.71.71 0 00-.086.23.646.646 0 00-.009.233 1.319 1.319 0 00.243.545 3.69 3.69 0 00.5.558 6.348 6.348 0 00.618.505 7.441 7.441 0 001.414.793 12.52 12.52 0 003.216.864 19.144 19.144 0 006.739-.266 24.227 24.227 0 006.377-2.362c.5-.273 1-.555 1.466-.854a15.345 15.345 0 001.347-1 14.33 14.33 0 002.3-2.436 11.562 11.562 0 001.586-2.906 6.009 6.009 0 00.256-3.145 8.183 8.183 0 00-1.26-2.993 12.939 12.939 0 00-4.894-4.454 12.033 12.033 0 00-3.134-1.127 12.3 12.3 0 00-3.324-.24 12.56 12.56 0 00-3.279.635 12.036 12.036 0 00-5.479 3.713 12.812 12.812 0 00-1.812 2.834 12.533 12.533 0 00-.983 3.225c-.031.279-.084.562-.1.837a7.635 7.635 0 00-.021.833 6.176 6.176 0 00.26 1.636 3.622 3.622 0 00.773 1.4 2.522 2.522 0 001.366.775.22.22 0 01-.073.434 3.014 3.014 0 01-1.677-.828 4.2 4.2 0 01-.976-1.587 7.845 7.845 0 01-.314-3.611 13.383 13.383 0 01.95-3.473 13.713 13.713 0 011.854-3.1 12.887 12.887 0 015.882-4.13 13.376 13.376 0 017.19-.475 13.142 13.142 0 013.429 1.225 13.946 13.946 0 012.985 2.074 13.794 13.794 0 012.357 2.771 9.324 9.324 0 011.432 3.411 7.2 7.2 0 01-.3 3.746 12.761 12.761 0 01-1.742 3.217 15.433 15.433 0 01-2.486 2.645 16.359 16.359 0 01-1.457 1.087c-.516.333-1.03.621-1.552.909a25.422 25.422 0 01-6.693 2.492 20.349 20.349 0 01-7.165.258 13.687 13.687 0 01-3.514-.96 8.6 8.6 0 01-1.627-.921 7.424 7.424 0 01-.733-.6 4.872 4.872 0 01-.659-.744 2.467 2.467 0 01-.437-1.048 1.808 1.808 0 01.023-.636 1.884 1.884 0 01.226-.582 2.093 2.093 0 01.884-.794 3.611 3.611 0 01.988-.312 7.847 7.847 0 011.885-.069 14.715 14.715 0 011.8.244 11.765 11.765 0 013.457 1.206 7.168 7.168 0 012.729 2.572 5.343 5.343 0 01.682 1.816 4.466 4.466 0 01-.1 1.974 3.84 3.84 0 01-1.017 1.734 4.339 4.339 0 01-1.713.981 7.737 7.737 0 01-1.841.326 11.813 11.813 0 01-1.826-.013 12.044 12.044 0 01-3.536-.848 6.842 6.842 0 01-1.651-.9 3.286 3.286 0 01-.7-.746 2.308 2.308 0 01-.25-2.1 3.19 3.19 0 01.5-.89 4.953 4.953 0 011.48-1.229.467.467 0 01.458.813z"/><path data-name="Path 2058" d="M148.326 10.647a.569.569 0 01-.566-.516l-.5-5.369a.569.569 0 011.133-.105l.5 5.368a.569.569 0 01-.514.619z"/><path data-name="Path 2059" d="M166.298 7.098a.57.57 0 01-.528-.779l2.366-5.96a.569.569 0 111.057.419l-2.366 5.96a.57.57 0 01-.529.36z"/><path data-name="Path 2060" d="M180.494 16.79a.569.569 0 01-.258-1.077l6.552-3.321a.57.57 0 01.515 1.015l-6.552 3.321a.561.561 0 01-.257.062z"/><g data-name="Group 921"><g data-name="Group 918"><path data-name="Path 2061" d="M27.882 311.219a2.77 2.77 0 011.077 2.177c0 1.433-2.206 5.664-12.534 5.664S.568 314.225.568 305.552s3.883-13.851 7.181-16.763l-1.117 1.061" fill="#fff"/><path data-name="Path 2062" d="M16.426 319.63C5.834 319.63 0 314.63 0 305.554c0-6.988 2.551-12.931 7.375-17.189a.569.569 0 01.768.839l-1.118 1.061-.027.025c-3.889 3.962-5.859 9.09-5.859 15.264 0 4.158 1.3 7.379 3.857 9.575 2.6 2.233 6.448 3.365 11.431 3.365 9.936 0 11.966-4.019 11.966-5.1a2.19 2.19 0 00-.835-1.712.569.569 0 01.65-.933 3.343 3.343 0 011.322 2.645c0 1.736-2.354 6.236-13.104 6.236z"/></g><g data-name="Group 919"><path data-name="Path 2063" d="M7.751 288.79l.958 5.173-1.2.255s20.326-4.368 24.421-4.368c2.372 0 4.113.563 4.113 2.321 0 .932-.786 2.646-6.345 4.5l-18 3.875s11.6-2.5 17.334-3.731 6.6-1.57 9.783-1.57c1.637 0 2.843.591 2.843 1.638s-.933 3.071-6.074 4.527-15.515 4.277-22.294 4.141" fill="#fff"/><path data-name="Path 2064" d="M13.757 306.12h-.482a.569.569 0 01.023-1.137c7.07.149 18.406-3.064 22.128-4.119 4.173-1.182 5.661-2.832 5.661-3.98 0-.739-1.143-1.069-2.275-1.069a26.631 26.631 0 00-7.028.983c-.579.127-1.226.27-1.958.428h-.009l-.059.013-.609.131h-.006l-17.325 3.729a.569.569 0 01-.238-1.112s11.6-2.5 17.331-3.73l.611-.131.031-.007c5.348-1.784 5.927-3.354 5.927-3.947 0-.433 0-1.752-3.544-1.752-3.5 0-19.434 3.324-23.4 4.165l-.9.191a.569.569 0 01-.237-1.112l.661-.142-.857-4.628a.569.569 0 111.118-.207l.852 4.6c5.073-1.068 19.333-4 22.768-4 3.106 0 4.681.972 4.681 2.889 0 1-.663 1.959-1.978 2.861a20.518 20.518 0 014.179-.358c2.072 0 3.412.866 3.412 2.207 0 .973-.632 3.416-6.488 5.074-3.692 1.036-14.727 4.16-21.99 4.16z"/></g><g data-name="Group 920"><path data-name="Path 2065" d="M14.526 313.841c15.322-1.672 22.237-5.966 22.493-8.526.132-1.319-2.564-3.417-4.667-3.014 0 0-10.766 2.657-14.045 2.94" fill="#fff"/><path data-name="Path 2066" d="M14.523 314.412a.569.569 0 01-.062-1.134c8.618-.941 13.855-2.633 16.73-3.886 3.739-1.63 5.17-3.245 5.259-4.132a1.889 1.889 0 00-.762-1.237 4.2 4.2 0 00-3.219-1.164c-.624.154-10.863 2.67-14.116 2.95a.569.569 0 11-.1-1.133c3.2-.275 13.849-2.9 13.957-2.925l.028-.007a5.249 5.249 0 014.215 1.439 2.8 2.8 0 011.126 2.19c-.328 3.278-8.332 7.435-23 9.035a.5.5 0 01-.056.004z"/></g></g><g data-name="Group 922"><path data-name="Path 2067" d="M139.674 87.045a83.231 83.231 0 00-5.088 28.41c0 22.294 9.463 26.025 14.06 28.482s8.644 3.64 8.644 4.186-2.958 1.41-9.1 1.41-12.512-.773-15.833-3.094-.546-3.867.5-1.547-1.411 10.465-2.138 13.149-.864 6.461-12.512 6.461c-23.478 0-34.034-14.651-34.034-14.651 2.547 19.474 11.375 23.478 34.534 23.91 0 9.487-7.508 25.73-27.982 25.73-17.2 0-21.976-10.169-21.976-15.561s2.525-7.985 2.525-20.338c0-17.4-3.845-25.662-3.845-25.662-12.012-5.779-15.924-12.83-15.924-17.153s3.73-9.511 7.872-9.511 7.371 6.008 8.326 8.373 2.184 4.413 5.415 7.644 5.05 3.048 6.324 3.048 3.958-.364 3.958-1.775-5.641-4.322-5.641-11.511c0-8.326 12.011-12.558 12.011-15.049 0-1.023-7.917-2.764-7.917-8.36s11.262-7.917 30.3-7.917A245.911 245.911 0 01141 87.198" fill="#fff"/><path data-name="Path 2068" d="M90.725 200.059c-7.64 0-13.807-2.046-17.832-5.917a14.517 14.517 0 01-4.713-10.212 24.854 24.854 0 01.9-6.027 54.924 54.924 0 001.629-14.311c0-15.67-3.173-23.945-3.714-25.241-11.832-5.747-16.055-12.837-16.055-17.574 0-4.537 3.894-10.079 8.44-10.079 5.268 0 8.709 8.373 8.853 8.729.929 2.3 2.093 4.258 5.29 7.455 2.9 2.9 4.531 2.892 5.725 2.883h.2c1.385 0 3.389-.43 3.389-1.206a5.619 5.619 0 00-1.117-1.417c-1.692-1.828-4.525-4.889-4.525-10.094 0-5.671 5.3-9.545 8.8-12.109 1.422-1.04 3.022-2.211 3.194-2.836a10.631 10.631 0 00-1.385-.8c-2.437-1.273-6.516-3.4-6.516-7.667 0-5.709 10.1-8.485 30.871-8.485a265.125 265.125 0 0127.542 1.324.593.593 0 01.077.008c.833.09 1.28.148 1.3.151a.569.569 0 01-.147 1.128c-.017 0-.319-.041-.881-.1a84.261 84.261 0 00-4.892 27.8c0 9.045 1.6 16.019 4.766 20.728a20.146 20.146 0 008.25 6.862c.259.135.508.264.744.391 2.239 1.2 4.37 2.1 5.926 2.756 2.319.981 3.02 1.277 3.02 1.931 0 .474-.322 1.018-2.711 1.469a38.387 38.387 0 01-6.958.51c-4.617 0-10.614-.422-14.577-2.292a61.266 61.266 0 01-2.084 9.435l-.262.945c-.046.17-.09.346-.134.524-.671 2.683-1.591 6.356-12.926 6.356a47.068 47.068 0 01-26.133-7.419 37.83 37.83 0 01-7.049-5.9c1.384 8.529 4.126 13.587 8.995 16.721 4.844 3.118 12 4.487 24.7 4.724a.57.57 0 01.559.569 27.287 27.287 0 01-6.448 16.79c-3.676 4.326-10.489 9.497-22.111 9.497zm-31.349-88.224c-3.864 0-7.3 5-7.3 8.942 0 6.742 8.4 13.178 15.6 16.641a.563.563 0 01.27.272c.159.342 3.9 8.571 3.9 25.9a55.88 55.88 0 01-1.66 14.571 23.643 23.643 0 00-.865 5.767 13.651 13.651 0 004.363 9.392c3.809 3.663 9.7 5.6 17.043 5.6 11.187 0 17.723-4.952 21.234-9.106a26.281 26.281 0 006.169-15.5c-12.576-.272-19.762-1.7-24.726-4.893-5.469-3.521-8.49-9.535-9.794-19.5a.569.569 0 011.025-.407 33.143 33.143 0 008.11 7.213 45.956 45.956 0 0025.462 7.2c10.447 0 11.178-2.919 11.822-5.5.047-.186.093-.368.141-.546.073-.267.162-.589.264-.953a59.62 59.62 0 002.089-9.714q-.254-.155-.49-.321c-1.937-1.353-1.89-2.439-1.781-2.843a1.2 1.2 0 011.1-.882 2.17 2.17 0 012.027 1.478 4.764 4.764 0 01.3 1.913c2.982 1.549 8.059 2.393 14.51 2.393 4.589 0 7.193-.49 8.182-.853-.469-.235-1.231-.557-1.975-.873-1.577-.667-3.734-1.579-6.02-2.8-.232-.124-.478-.252-.733-.385-4.763-2.48-13.628-7.1-13.628-28.6a85.762 85.762 0 014.863-27.921c-4.017-.414-13.685-1.244-26.725-1.244-9.735 0-17.189.62-22.157 1.844-5.027 1.238-7.577 3.09-7.577 5.5 0 3.575 3.7 5.506 5.906 6.659 1.3.677 2.011 1.051 2.011 1.7 0 1.169-1.462 2.239-3.676 3.858-3.518 2.573-8.336 6.1-8.336 11.19 0 4.759 2.542 7.5 4.223 9.322.855.924 1.419 1.534 1.419 2.189 0 1.85-2.846 2.343-4.526 2.343h-.189c-1.314.007-3.3.023-6.537-3.216-3.32-3.319-4.581-5.458-5.54-7.833a21.056 21.056 0 00-2.885-4.93c-1.131-1.388-2.903-3.067-4.913-3.067zm72.085 32.478h-.023c-.079.006-.087.034-.09.047-.039.141.1.705 1.166 1.492a2.456 2.456 0 00-.176-.726c-.292-.648-.687-.812-.876-.812z"/></g><path data-name="Path 2069" d="M62.02 111.222c4.14 0 7.48 6.051 8.436 8.417s2.184 4.413 5.414 7.644 5.051 3.049 6.325 3.049 3.958-.364 3.958-1.774-5.642-4.323-5.642-11.511c0-8.326 12.012-12.558 12.012-15.049 0-1.024-7.917-2.764-7.917-8.36s11.261-7.917 30.3-7.917a245.9 245.9 0 0128.847 1.479s16.061-4.414 23.523-13.058 15.811-20.77 15.811-22.067-2.048.682-4.1 1.911-5.8 2.776-25.366 3.139-34.852.819-56.783 2-28.413 1.752-34.692 4.072S51.5 69.749 51.5 73.23s4.708 13.036 6.006 18.905 4.618 19.087 4.618 19.087" fill="#f2f0e3"/><path data-name="Path 2070" d="M68.104 133.837a.588.588 0 01-.1-.008 7.445 7.445 0 01-5.741-4.216 3.435 3.435 0 01-.112-2.665 4.469 4.469 0 011.02-1.324 2.818 2.818 0 00.822-1.115 2.349 2.349 0 00-.632-1.884 7.256 7.256 0 00-3-2.554 4.111 4.111 0 00-3.633.13.569.569 0 11-.587-.974 5.193 5.193 0 014.658-.206 8.365 8.365 0 013.485 2.937 3.356 3.356 0 01.81 2.848 3.745 3.745 0 01-1.117 1.623 3.542 3.542 0 00-.782.977 2.412 2.412 0 00.122 1.774 6.308 6.308 0 004.881 3.528.569.569 0 01-.095 1.13z"/><path data-name="Path 2071" d="M95.223 104.097a.569.569 0 01-.445-.922 12.8 12.8 0 018.727-4.7.569.569 0 01.1 1.133 11.641 11.641 0 00-7.937 4.271.57.57 0 01-.445.218z"/><path data-name="Path 2072" d="M132.404 104.709a.567.567 0 01-.454-.225 3.621 3.621 0 00-1.381-.97 18.827 18.827 0 00-7.21-1.811.569.569 0 11.052-1.136 19.96 19.96 0 017.648 1.921 4.69 4.69 0 011.8 1.309.569.569 0 01-.453.912z"/><ellipse data-name="Ellipse 234" cx="2.696" cy="6.432" rx="2.696" ry="6.432" transform="translate(99.563 121.312)"/><ellipse data-name="Ellipse 235" cx="2.832" cy="6.125" rx="2.832" ry="6.125" transform="translate(122.426 121.926)"/><path data-name="Path 2073" d="M79.029 130.902c-1.313 0-3.254-.154-6.317-3.217-3.319-3.319-4.58-5.458-5.54-7.833a21.043 21.043 0 00-2.937-4.95c-1.154-1.419-2.956-3.112-4.971-3.112a.571.571 0 01-.529-.778c-.534-2.131-3.369-13.476-4.535-18.755a76.326 76.326 0 00-3.105-9.315c-1.5-3.967-2.913-7.714-2.913-9.712 0-3.824 4.531-8.169 11.019-10.566 6.36-2.351 12.681-2.91 34.859-4.107 22.387-1.208 37.779-1.649 56.8-2 20.626-.384 23.525-2.124 25.083-3.059.578-.346 1.175-.769 1.7-1.141 1.337-.945 2.143-1.514 2.789-1.18a.919.919 0 01.466.9c0 1.7-9.093 14.495-15.95 22.439-7.488 8.676-23.14 13.052-23.8 13.235a.559.559 0 01-.224.015 248.111 248.111 0 00-28.772-1.474c-9.735 0-17.19.62-22.156 1.843-5.029 1.239-7.577 3.091-7.577 5.5 0 3.575 3.7 5.506 5.9 6.659 1.3.677 2.012 1.05 2.012 1.7 0 1.169-1.463 2.239-3.676 3.858-3.518 2.573-8.335 6.1-8.335 11.191 0 4.76 2.54 7.505 4.222 9.322.855.924 1.42 1.534 1.42 2.19 0 1.85-2.846 2.343-4.528 2.343h-.409zm-19.2-20.217c1.788.2 3.565 1.378 5.292 3.5a21.924 21.924 0 013.11 5.242c.929 2.3 2.092 4.258 5.29 7.454 2.9 2.9 4.531 2.891 5.725 2.883h.2c1.386 0 3.39-.429 3.39-1.206a5.578 5.578 0 00-1.117-1.417c-1.692-1.829-4.525-4.889-4.525-10.094 0-5.671 5.3-9.545 8.8-12.108 1.422-1.04 3.022-2.211 3.2-2.836a10.745 10.745 0 00-1.385-.8c-2.437-1.272-6.517-3.4-6.517-7.667 0-5.71 10.1-8.485 30.871-8.485a252.662 252.662 0 0128.8 1.469 73.27 73.27 0 008.793-3.236c4.456-1.968 10.561-5.233 14.343-9.615 7.428-8.606 14.574-19.14 15.561-21.385-.379.215-.919.6-1.349.9-.542.384-1.159.819-1.772 1.188-2.283 1.37-6.335 2.861-25.648 3.22-19.01.354-34.393.794-56.763 2-22.042 1.189-28.312 1.741-34.526 4.038-5.953 2.2-10.275 6.2-10.275 9.5 0 1.791 1.38 5.444 2.841 9.311a77.252 77.252 0 013.152 9.471c1.147 5.224 3.944 16.423 4.509 18.673z"/><g data-name="Group 923"><path data-name="Path 2074" d="M204.747 151.352a4.775 4.775 0 012.592-.545c1.82 0 7.553 2.32 7.553 8.281s-5.756 12.8-9.441 12.8-4.868-2.49-4.868-2.49" fill="#fff"/><path data-name="Path 2075" d="M205.451 172.452c-4 0-5.326-2.7-5.381-2.814a.569.569 0 011.027-.488c.042.086 1.1 2.165 4.354 2.165 3.423 0 8.872-6.677 8.872-12.228 0-5.7-5.562-7.712-6.984-7.712a4.462 4.462 0 00-2.272.447.574.574 0 01-.787-.152.565.565 0 01.138-.782 5.236 5.236 0 012.921-.649c2.312 0 8.122 2.632 8.122 8.849 0 6.322-5.967 13.364-10.01 13.364z"/></g><g data-name="Group 924"><path data-name="Path 2076" d="M197.017 170.975c3.6.059 8.912-6.245 8.912-14.025s-5.46-10.511-7.372-10.511a5.944 5.944 0 00-3.319 1.089" fill="#fff"/><path data-name="Path 2077" d="M197.07 171.544h-.06a.569.569 0 01.009-1.137h.05a5.917 5.917 0 003.745-1.987 16.5 16.5 0 004.549-11.471c0-7.561-5.3-9.941-6.8-9.941a5.421 5.421 0 00-2.974.971.569.569 0 01-.694-.9 6.5 6.5 0 013.668-1.208c2.034 0 7.938 2.728 7.938 11.079a17.676 17.676 0 01-4.888 12.281 6.907 6.907 0 01-4.543 2.313z"/></g><g data-name="Group 925"><path data-name="Path 2078" d="M188.047 164.956c5.665-.614 11.534-3.071 11.534-6.62s-8.462-5.46-15.629-5.46-8.189 3.958-8.189 6.415a29.644 29.644 0 002.684 10.76c1.82 4.095 1.82 9.1 1.888 13.923s-1.161 6.916-1.161 6.916" fill="#fff"/><path data-name="Path 2079" d="M179.175 191.46a.569.569 0 01-.49-.857c.011-.017 1.146-2.055 1.083-6.62l-.007-.538c-.063-4.585-.127-9.325-1.833-13.162a29.808 29.808 0 01-2.733-10.991c0-2.608 1.138-6.984 8.759-6.984 6.263 0 16.2 1.636 16.2 6.029 0 1.868-1.365 3.567-3.948 4.914a23.812 23.812 0 01-8.093 2.271.569.569 0 11-.123-1.131c5.346-.579 11.027-2.9 11.027-6.054 0-1.336-1.679-2.585-4.726-3.517a37.093 37.093 0 00-10.335-1.374c-4.986 0-7.622 2.022-7.622 5.847a29.165 29.165 0 002.636 10.53c1.8 4.049 1.866 8.908 1.93 13.607l.007.538c.07 4.925-1.184 7.121-1.238 7.212a.57.57 0 01-.494.28z"/></g></g><path data-name="Path 2080" d="M4833.07 2110.357s-1.218-2.753-1.218-8.849c0-16.744 22.761-33.942 49.787-33.942s27.891 15.288 27.618 21.021 4.774 19.92 8.438 24.61 19.225 13.245 24.775 18.159 11.166 11.057 10.3 17.927-1.965 14.361-5.9 20.537a97.44 97.44 0 01-16.391 19.683c-6.559 5.807-16.48 14.843-18.735 18.341s-1.936 6.137-.343 8.64a63.9 63.9 0 006.552 8.508c2.246 2.364 6 4.327 7.1 6.281s3.842 7.751 3.15 10.153-.135 4.081-3.484 8.167c0 0-26.9-10.588-27.51-10.588s-6.358-10.189-6.358-10.189l-1.968-6.1c-6.729 3.463-18.28 3.941-33.866 1.923 0 0 11.959-1.946 15.917-10.272s4.914-14.469 5.392-24.569 1.911-27.709 7.3-29.073c0 0-4.026-2.389-4.026-5.733s9.213-17.062 9.213-17.062-2.57-6.029-10.486-12.217-20.748-17.562-30.076-17.562c-3.912 0-14.7 2.867-14.7 2.867z" fill="#f2f0e3"/><path data-name="Path 2081" d="M4821.695 2255.531l24.658-14.41v-14.06c20.431 2.54 37.5 3.135 47.979-.068l5.46 9.487s17.813 4.095 30.507 12.353 17.449 14.287 19.36 29.574 7.734 89.451 7.734 89.451l-91.452-.557a20.332 20.332 0 00-7.464-15.333l-3.729.535.341.966-45.248 17.484h-27.821l18.516-72.025-18.516.046c-2.305-30.289 24.506-34.578 39.675-43.443z" fill="#367fc1"/><path data-name="Path 2082" d="M4926.36 2342.016a.568.568 0 01-.568-.569v-54.85a.569.569 0 111.137 0v54.85a.568.568 0 01-.569.569z"/><path data-name="Path 2083" d="M4872.873 2244.593c-8.718 0-19.263-1.314-31.754-3.94a.569.569 0 01-.445-.469c-.682-4.378-.611-10.15.224-18.164a.571.571 0 01.234-.4.566.566 0 01.456-.093c21.548 4.847 36.94 5.065 47.059.67a.569.569 0 01.768.347l5.46 16.926a.571.571 0 01-.262.67c-5.27 2.968-12.47 4.453-21.74 4.453zm-31.133-4.972c24.933 5.206 41.924 5.124 51.908-.251l-5.125-15.889c-10.248 4.2-25.494 3.969-46.559-.707-.739 7.351-.81 12.733-.221 16.847z"/><g data-name="Group 927"><path data-name="Path 2084" d="M4887.4 2223.308s-5.489-9.418-5.9-26.889 10.238-22.795 10.238-22.795c8.394.273 21.088-5.119 21.088-13.377 0-4.5-3.959-6.893-9.009-6.893-7.848 0-7.1 7.575-13.1 7.575-3.754 0-6.757-2.388-6.757-6.074 0-4.436 8.327-8.8 8.327-18.018 0-11.67-22.431-31.053-46.09-31.053-12.262 0-32.4 17.471-34.443 39.784 0 0-19.452 12.767-19.519 13.381s2.662 2.321 16.925 1.979v12.968s21.632.351 28.392-.069c8.8-.546 13.854-4.095 14.468-3.685s-5.6 13.991-40.266 15.288c0 0 14.514 9.077 20.793 15.538 5.984 6.158 11.489 21.674 11.489 21.674" fill="#fff"/><path data-name="Path 2085" d="M4887.4 2223.877a.568.568 0 01-.492-.282c-.227-.39-5.567-9.745-5.976-27.163-.215-9.187 2.643-15.023 5.078-18.3a17.273 17.273 0 015.474-5.015.558.558 0 01.273-.06c5.988.193 13.458-2.512 17.369-6.3a9.031 9.031 0 003.132-6.51c0-3.842-3.312-6.324-8.44-6.324-3.914 0-5.537 2.01-7.107 3.955-1.437 1.78-2.922 3.62-6 3.62-4.245 0-7.325-2.793-7.325-6.643 0-2.012 1.467-3.907 3.166-6.1 2.3-2.972 5.161-6.669 5.161-11.914 0-5.579-5.472-13.211-13.941-19.445-9.531-7.016-21.042-11.04-31.58-11.04-6.059 0-13.968 4.349-20.64 11.349-7.617 7.991-12.318 17.906-13.236 27.919a.568.568 0 01-.254.424c-6.646 4.362-17.151 11.376-19.079 12.952.764.452 3.962 1.659 16.16 1.365a.568.568 0 01.582.569v12.407c3.439.051 21.732.3 27.787-.075a36.56 36.56 0 0012.4-3.066c1.438-.6 1.975-.823 2.422-.526.285.19.361.526.229 1-.394 1.4-2.728 4.9-8.74 8.2-7.36 4.035-17.529 6.406-30.244 7.052 3.909 2.521 14.254 9.384 19.374 14.653 6 6.176 11.39 21.242 11.617 21.88a.569.569 0 01-1.072.38c-.054-.154-5.531-15.47-11.361-21.468-6.158-6.337-20.542-15.362-20.687-15.452a.569.569 0 01.28-1.051c9.5-.355 22.792-1.922 32.217-7.37 4.569-2.642 6.68-5.359 7.321-6.622-.272.105-.6.241-.919.375a37.593 37.593 0 01-12.765 3.151c-6.706.415-28.219.073-28.437.069a.568.568 0 01-.559-.568v-12.385c-9.315.19-15.369-.5-16.653-1.9a.9.9 0 01-.269-.722c.043-.389.071-.646 10.033-7.331 4.225-2.834 8.492-5.643 9.511-6.313 1-10.174 5.8-20.223 13.519-28.326 6.88-7.217 15.1-11.7 21.464-11.7 10.775 0 22.532 4.1 32.254 11.261 8.885 6.54 14.4 14.342 14.4 20.361 0 5.633-2.994 9.5-5.4 12.611-1.571 2.03-2.929 3.784-2.929 5.407 0 3.19 2.6 5.505 6.188 5.505 2.531 0 3.727-1.482 5.112-3.2 1.657-2.052 3.534-4.378 7.992-4.378 5.818 0 9.577 2.929 9.577 7.462a10.122 10.122 0 01-3.478 7.328c-4.686 4.536-12.58 6.757-18.042 6.622a17.056 17.056 0 00-4.994 4.667c-2.309 3.131-5.019 8.716-4.812 17.542a72.44 72.44 0 003.062 19.794 37.09 37.09 0 002.758 6.823.569.569 0 01-.491.854z"/></g><path data-name="Path 2086" d="M4801.289 2259.803a.569.569 0 01-.271-1.07 388.716 388.716 0 0140-19.165.569.569 0 11.422 1.056 387.651 387.651 0 00-39.883 19.109.567.567 0 01-.268.07z"/><path data-name="Path 2087" d="M4951.934 2368.863a.569.569 0 01-.569-.556c-.014-.613-1.391-61.479-3.68-78.449-1.2-8.9-2.637-16.089-5.746-22.257-3.421-6.789-8.7-11.987-16.625-16.359-16.771-9.258-30.909-11.018-31.05-11.035a.569.569 0 01.134-1.13c.143.017 14.5 1.8 31.465 11.169 8.13 4.488 13.562 9.84 17.09 16.843 3.18 6.309 4.641 13.6 5.857 22.617 2.3 17.033 3.676 77.963 3.69 78.576a.569.569 0 01-.556.581z"/><path data-name="Path 2088" d="M4897.489 2169.473a.569.569 0 01-.364-1.006 10.578 10.578 0 002.758-3.327 1.642 1.642 0 00.234-.851c-.011-.141-.034-.436-.56-.445h-.175c-.6 0-1.828 0-1.992-1.226a2.581 2.581 0 011.361-2.478 8.61 8.61 0 017.071-1.142.569.569 0 01-.291 1.1 7.655 7.655 0 00-4.114.035c-1.146.347-3.047 1.228-2.9 2.333.022.163.114.24.858.24h.2a1.587 1.587 0 011.676 1.494 2.686 2.686 0 01-.355 1.456 11.7 11.7 0 01-3.044 3.685.565.565 0 01-.363.132z"/><path data-name="Path 2089" d="M4924.234 2250.576a.569.569 0 01-.333-1.031c1.315-.959 3.8-4.266 3.8-9.9 0-6.7-4.457-9.614-9.177-12.7-4.592-3.006-9.34-6.114-9.34-12.913 0-6.635 6.574-12.366 14.9-19.623 12.558-10.947 28.188-24.571 28.188-47.943 0-14.423-14.936-21.4-23.859-25.569-1-.467-1.944-.908-2.759-1.311-8.244-4.074-12.784-9.847-12.784-16.253a56.242 56.242 0 011.008-9.3 49.664 49.664 0 00.9-8.032c0-2.164-1.382-7.572-6.615-12.555-4.174-3.976-12.048-8.716-25.849-8.716-12.2 0-25.923 4.23-36.712 11.313-11.006 7.225-17.317 16.153-17.317 24.495a13.191 13.191 0 004.85 9.791.569.569 0 01-.678.913 14.107 14.107 0 01-5.308-10.7c0-8.731 6.5-18.006 17.83-25.446 10.967-7.2 24.924-11.5 37.336-11.5 7.826 0 18.8 1.566 26.634 9.03a24.9 24.9 0 015.4 7.423 15.17 15.17 0 011.567 5.955 50.377 50.377 0 01-.917 8.218 55.345 55.345 0 00-.993 9.117c0 5.951 4.315 11.36 12.15 15.233.805.4 1.744.836 2.736 1.3 4.451 2.08 10.547 4.927 15.543 9.132 5.953 5.009 8.973 10.887 8.973 17.469a49.076 49.076 0 01-9.616 29.3c-5.574 7.834-12.687 14.034-18.962 19.5-8.105 7.067-14.51 12.648-14.51 18.766 0 6.184 4.287 8.99 8.826 11.962 4.765 3.118 9.692 6.344 9.692 13.655 0 7.666-4.1 10.7-4.279 10.827a.562.562 0 01-.325.093z"/><path data-name="Path 2090" d="M4825.537 2126.691a.568.568 0 01-.446-.92 9.7 9.7 0 016.7-3.9.569.569 0 01.124 1.131 8.481 8.481 0 00-5.927 3.472.57.57 0 01-.451.217z"/><path data-name="Path 2091" d="M4860.177 2126.964a.568.568 0 01-.433-.2c-2.189-2.573-5.1-3.865-9.15-4.067a.568.568 0 01.057-1.135c4.329.215 7.586 1.676 9.959 4.464a.568.568 0 01-.433.938z"/><ellipse data-name="Ellipse 236" cx="2.411" cy="6.461" rx="2.411" ry="6.461" transform="translate(4826.904 2131.355)"/><ellipse data-name="Ellipse 237" cx="2.798" cy="5.96" rx="2.798" ry="5.96" transform="translate(4847.196 2133.22)"/><g data-name="Group 929" transform="translate(4640.26 2018.697)"><path data-name="Path 2092" d="M92.4 130.259c2.931-7.227 10.839-10.09 15.952-10.09s13.091 1.908 13.091 7.461c0 7.939-18.543 14.969-27.474 14.969-9.067 3.272-18.884 12.407-18.884 20.725s3 8.59 3 12.68-3.272 8.385-14.657 11.453-14.078-1.772-15.067-4.193-2.113-3.511-6.34-5.351a42.646 42.646 0 01-14.726-11.863 117.887 117.887 0 01-7.5-11.726c19.049.452 33.422-4.179 43.291-13.7-10.406 3.5-26.7 3.469-46.222 1.5a86.364 86.364 0 011.432-18.68l-17.725-.955a92.916 92.916 0 0018.476-7.567c1.532-15.46 6.017-31.658 13.165-48.524l8.878-5.61 7.6-3.784 12.316-2.675 5.306-.219 7.295.468 8.395 1.61 7.127 2.256 5.689 2.448 5.885 3.277 5.545 4.114 5.075 5.6 2.431 5.272.326 2.638-1.059 5.267-2.992 4.7-2.817 2.871-3.98 3.407-3.486 3.088-2.5 3.09-1.024 3.526.4 3.717.636 3.464-1.189 3.474-3.319 3.479-1.614 2.856-.976 3.484z" fill="#d6d1c3"/><g data-name="Group 928"><path data-name="Path 2093" d="M160.192 319.298l.835-35.085v-3.9l-35.09-.353v39.185l-65.786 7.889-3.476 25.225h85.085a326.1 326.1 0 0018.432-32.961z" fill="#d6d1c3"/><path data-name="Path 2094" d="M141.76 352.824H56.676a.568.568 0 01-.563-.646l3.475-25.226a.571.571 0 01.5-.487l65.284-7.828v-38.68a.568.568 0 01.568-.568h.006l35.09.353a.568.568 0 01.563.569v3.9l-.835 35.1a.578.578 0 01-.058.235 327.849 327.849 0 01-18.463 33.015.569.569 0 01-.483.263zm-84.433-1.137h84.121a326.924 326.924 0 0018.177-32.526l.833-34.961v-3.327l-33.954-.342v38.61a.568.568 0 01-.5.565l-65.349 7.836zm102.864-32.389z"/></g><path data-name="Path 2095" d="M12.636 195.909l33.546-15.72a12.917 12.917 0 012.333 3.44c1.343 2.565 4.036 5.632 10.273 4.815s14.278-4.4 15.581-5.794 3.492-3.26 3.576-5.4.341-2.431.341-2.431l1.25-1.25a270.54 270.54 0 0127.724 8.521c13.363 5.045 28.5 11.976 38.382 19.884s13.749 13.883 15.021 23.5 2.545 21.248 2.545 21.248l1.563 33.587s-27.788-.034-30.821 0-4.6.954-4.6 6.34v32.459l-65.835 7.3 10.887-122.862s1.649-1.843.586-3.165-3.606-4.445-7.9-4.458-54.452-.014-54.452-.014z" fill="#367fc1"/><path data-name="Path 2096" d="M92.881 129.203c-3.224 2.985-3.754-3.52.711-14.68 1.03-2.574-.854-8.868 1.5-13.4s4.942-1.61 7.158-5.735 4.6-8.215 4.6-12.783-8.691-25.088-34.87-25.088-35.656 9.088-38.691 9.248-9.673.429-9.673-8.568 8.21-15.75 9.986-16.8.869-1.191.438-3.646-2.607-12.936 5.208-20.228 15.809-14.7 28.361-16.156 23.155.263 23.221 1.43-1.76 3.087-2.807 7.615-1.472 9.053.667 12.551 5.242 7.067 11.138 7.072 11.026.63 16.762 4.732 9.882 11.089 11.081 13.41a116.951 116.951 0 015.612 14.8 68.278 68.278 0 011.348 14.653c-.2 2.761-3.131 10.2-4.259 13.366s-12.341 19.316-13.858 22.03a28.776 28.776 0 01-4.667 5.637l-.851 1.326a40.87 40.87 0 00-18.115 9.214z" fill="#4c3e34"/><path data-name="Path 2097" d="M101.148 138.857a.569.569 0 01-.154-1.116 1.486 1.486 0 00.827-2.273 2.857 2.857 0 00-1.529-.96c-.175-.059-.353-.113-.529-.167a7.446 7.446 0 01-1.64-.647 2.673 2.673 0 01-1.442-2.255 2.532 2.532 0 011.02-1.894 5.858 5.858 0 011.688-.862 32.21 32.21 0 019.8-2.133.57.57 0 01.052 1.137 31.1 31.1 0 00-9.455 2.063 4.948 4.948 0 00-1.374.684 1.43 1.43 0 00-.591 1.025 1.612 1.612 0 00.879 1.253 6.5 6.5 0 001.4.541c.188.057.375.114.56.176a4.018 4.018 0 012.106 1.4 2.625 2.625 0 01-1.458 4.012.582.582 0 01-.16.016z"/><path data-name="Path 2098" d="M92.84 129.772c-.391 0-2.3-.062-3.149-1.223-.808-1.1.412-3.211 1.7-5.445.307-.533.6-1.037.843-1.5a12.565 12.565 0 011.972-2.489c1.214-1.3 2.47-2.651 2.47-4.2a7.992 7.992 0 00-.41-2.572 14.149 14.149 0 01-.622-4.609c0-4.137 3.766-7.27 7.753-10.586 4.738-3.942 10.108-8.409 10.108-15.365 0-5.973-5.586-12.8-14.943-18.257a65.97 65.97 0 00-32.255-8.854c-15.559 0-23.146 5.259-28.686 9.1-3.071 2.128-5.5 3.81-8.265 3.81-4.224 0-8.5-2.826-8.5-8.227a22.553 22.553 0 015.886-14.553 22.177 22.177 0 015.291-4.448 29.511 29.511 0 01-1.428-9.7c0-5.929 4.869-13.654 12.4-19.681A50.293 50.293 0 0174.3-.002c9.9 0 14.283 1.445 15.031 2.683a.567.567 0 01.011.569c-3.08 5.576-5.436 14.19-1.941 20.114 2.525 4.278 7.6 6.447 15.078 6.447 7.633 0 15.48 5.363 21.527 14.713a57.2 57.2 0 019.039 29.76c0 8.408-4.092 18.756-12.164 30.757a140.212 140.212 0 01-12.122 15.511.569.569 0 11-.832-.775c.239-.257 23.98-25.951 23.98-45.493 0-19.507-13.579-43.336-29.428-43.336-7.911 0-13.313-2.358-16.057-7.007a16.361 16.361 0 01-1.726-10.461A31.007 31.007 0 0188.13 3.097c-.8-.537-3.85-1.963-13.83-1.963A49.147 49.147 0 0043.716 11.86c-7.277 5.819-11.979 13.2-11.979 18.793a28.51 28.51 0 001.309 9.144 12.357 12.357 0 015.486-1.441c4.954 0 8.113 4.1 8.113 6.25 0 2.341-1.767 3.8-4.613 3.8-4.385 0-7.689-2.49-9.589-6.976-5.49 3.317-10.454 10.464-10.454 17.929a6.919 6.919 0 007.362 7.089c2.413 0 4.709-1.592 7.617-3.607 5.664-3.925 13.419-9.3 29.333-9.3a67.139 67.139 0 0132.828 9.008c9.711 5.665 15.508 12.858 15.508 19.239 0 7.49-5.588 12.138-10.519 16.24-3.939 3.277-7.342 6.108-7.342 9.712a13.173 13.173 0 00.576 4.291 9.048 9.048 0 01.455 2.89c0 1.994-1.475 3.576-2.775 4.973a11.816 11.816 0 00-1.8 2.247c-.255.48-.55.992-.864 1.534-.694 1.2-2.138 3.7-1.77 4.2.468.64 1.791.759 2.264.758h.008a.569.569 0 01.009 1.137zM33.46 40.865c1.719 4.117 4.673 6.4 8.582 6.4 3.024 0 3.476-1.665 3.476-2.658 0-1.562-2.636-5.113-6.976-5.113a11.305 11.305 0 00-5.083 1.371z"/><path data-name="Path 2099" d="M78.628 86.583a.569.569 0 01-.484-.27c-2.123-3.439-5.253-6.3-9.848-8.989a.569.569 0 01.575-.982c4.761 2.791 8.016 5.769 10.241 9.373a.569.569 0 01-.186.783.563.563 0 01-.298.085z"/><path data-name="Path 2100" d="M32.043 75.084a.569.569 0 01-.212-1.1 14.364 14.364 0 019.41-.884.57.57 0 11-.306 1.1 13.279 13.279 0 00-8.68.844.562.562 0 01-.212.04z"/><path data-name="Path 2101" d="M.569 196.479a.569.569 0 01-.242-1.084c19.761-9.267 34.32-15.069 43.273-17.244a.569.569 0 11.268 1.105c-8.879 2.157-23.367 7.933-43.058 17.168a.574.574 0 01-.241.055z"/><path data-name="Path 2102" d="M161.664 280.877h-.029c-14.111-.722-29.37-.722-45.35 0a.561.561 0 01-.418-.157.568.568 0 01-.176-.411v-32.928a.569.569 0 011.138 0v32.333c15.555-.686 30.422-.688 44.211-.006-.226-2.638-1.036-12.837-1.036-23.123 0-10.733-2.066-30.938-7.76-42.609-5.644-11.57-23.542-21.573-38.409-27.076a318.155 318.155 0 00-35.875-10.341.569.569 0 11.243-1.111 319.263 319.263 0 0136.026 10.384 113.057 113.057 0 0123.606 11.833c7.631 5.145 12.822 10.465 15.43 15.811 5.778 11.844 7.875 32.269 7.875 43.108 0 11.833 1.078 23.554 1.088 23.672a.568.568 0 01-.566.621z"/><path data-name="Path 2103" d="M60.152 327.598a.569.569 0 01-.066-1.134l71.242-8.543a.57.57 0 11.136 1.13l-71.243 8.543a.571.571 0 01-.069.004z"/><ellipse data-name="Ellipse 238" cx="6.168" cy="2.639" rx="6.168" ry="2.639" transform="rotate(-76 76.389 30.358)"/><ellipse data-name="Ellipse 239" cx="6.84" cy="3.029" rx="6.84" ry="3.029" transform="rotate(-76 97.084 16.962)"/><path data-name="Path 2104" d="M107.888 120.493L89.28 93.768c-1.221 3.165-5.108 12.817-8.884 17.594l-.546.693c-4.044 5.136-5.129 6.518-12.459 4.5-.467-.129-.968-.264-1.5-.408-10.494-2.848-21.69-6.327-21.69-11.594 0-1.746 1.794-6.019 3.695-10.542a366.155 366.155 0 001.528-3.672c1.486-3.648 3.908-9.027 3.932-9.081l1.037.467c-.024.053-2.437 5.413-3.916 9.043-.488 1.2-1.019 2.461-1.533 3.683-1.773 4.22-3.606 8.584-3.606 10.1 0 4.838 13.564 8.519 20.852 10.5.529.144 1.033.28 1.5.409 6.6 1.814 7.312.911 11.263-4.109l.548-.694c4.347-5.5 9.046-18.169 9.093-18.3l.377-1.023 19.849 28.505z"/><path data-name="Path 2105" d="M33.189 105.193c-2.227 0-6.391-1.266-13.292-3.362l-3.155-.957C8.1 98.263 7.68 97.327 7.681 95.898c0-.856.7-2.581 2.414-6.746q.658-1.6 1.468-3.58a118.508 118.508 0 003.865-11.21l.132-.473.487.061a308.656 308.656 0 0173.284 18.077l-.409 1.061a294.47 294.47 0 00-41.566-12.557c-.823 2.321-4.527 12.7-6.293 16.8-2.093 4.849-5.109 7.862-7.874 7.862zm-16.8-30.053c-.426 1.455-1.821 6.06-3.771 10.86-.539 1.325-1.032 2.519-1.47 3.586-1.353 3.279-2.329 5.648-2.329 6.29 0 .408 0 .641.81 1.134a38.49 38.49 0 007.444 2.775q1.666.5 3.157.957c6.8 2.066 10.9 3.313 12.961 3.313 2.232 0 4.977-2.885 6.829-7.178 1.722-3.99 5.313-14.045 6.219-16.594-9.644-2.126-19.566-3.833-29.851-5.142z"/><path data-name="Path 2106" d="M125.938 319.976a.835.835 0 01-.835-.835v-39.186a.836.836 0 111.671 0v39.185a.836.836 0 01-.836.836z"/><path data-name="Path 2107" d="M56.916 189.009a11.336 11.336 0 01-5.181-1.084 8.158 8.158 0 01-3.9-4.446c-.915-2.24-1.868-3.228-6.041-5.046a43.055 43.055 0 01-14.954-12.042 119.489 119.489 0 01-7.542-11.793.568.568 0 01.511-.843c17.55.415 31.335-3.577 41.042-11.873-9.633 2.555-24.088 2.816-44.044.8a.569.569 0 01-.512-.547 87.29 87.29 0 011.324-18.165l-17.08-.92a.569.569 0 01-.127-1.115 92.847 92.847 0 0018.1-7.378c1.532-15.095 5.964-31.373 13.176-48.389a.561.561 0 01.219-.259l8.878-5.609a.466.466 0 01.051-.028l7.6-3.784a.577.577 0 01.133-.047l12.316-2.675a.534.534 0 01.1-.012l5.307-.219a.485.485 0 01.06 0l7.295.468c.023 0 .047 0 .071.009l8.394 1.61a.557.557 0 01.064.016l7.127 2.256a.83.83 0 01.053.02l5.689 2.448a.571.571 0 01.052.025l5.885 3.277a.472.472 0 01.062.04l5.544 4.113a.5.5 0 01.082.074l5.077 5.6a.6.6 0 01.1.144l2.431 5.271a.581.581 0 01.048.168l.326 2.638a.583.583 0 01-.007.182l-1.059 5.267a.579.579 0 01-.078.193l-2.992 4.7a.541.541 0 01-.074.093l-2.817 2.871a.596.596 0 01-.037.034l-3.98 3.407-3.443 3.051-2.4 2.964-.961 3.309.381 3.584.632 3.443a.576.576 0 01-.021.287l-1.189 3.475a.579.579 0 01-.126.208l-3.271 3.428-1.546 2.734-.863 3.08 1.4 1.276c3.338-7.1 11.4-9.7 16.158-9.7 5.489 0 13.658 2.139 13.658 8.03 0 8.315-18.673 15.485-27.942 15.536a34.462 34.462 0 00-12.534 8.3c-3.793 3.947-5.882 8.159-5.882 11.86 0 4.757.974 6.738 1.832 8.487a8.649 8.649 0 011.167 4.194c0 5.268-5.073 9.306-15.078 12a25.947 25.947 0 01-6.664 1.004zm-36.137-34.1a114.184 114.184 0 006.969 10.8 42.428 42.428 0 0014.5 11.682c4.183 1.822 5.548 2.985 6.64 5.658.7 1.724 2.845 6.97 14.391 3.859 9.447-2.546 14.236-6.214 14.236-10.9a7.531 7.531 0 00-1.049-3.692c-.869-1.767-1.95-3.967-1.95-8.988 0-8.559 9.959-17.9 19.259-21.26a.561.561 0 01.194-.034c4.5 0 11.271-1.789 16.84-4.452 6.4-3.058 10.065-6.683 10.065-9.948 0-2.246-1.444-4.027-4.29-5.293a21.338 21.338 0 00-8.23-1.6c-4.614 0-12.529 2.593-15.426 9.735a.57.57 0 01-.911.207l-2.25-2.045a.567.567 0 01-.165-.574l.976-3.484a.555.555 0 01.052-.126l1.615-2.856a.563.563 0 01.083-.113l3.233-3.388 1.1-3.216-.609-3.318c0-.014 0-.028-.006-.042l-.4-3.717a.572.572 0 01.02-.219l1.024-3.527a.572.572 0 01.1-.2l2.5-3.09a.546.546 0 01.064-.068l3.486-3.088 3.969-3.4 2.759-2.811 2.9-4.562 1.02-5.073-.3-2.458-2.357-5.112-4.979-5.491-5.471-4.057-5.827-3.245-5.637-2.425-7.068-2.238-8.326-1.6-7.229-.463-5.228.215-12.2 2.65-7.512 3.739-8.7 5.5c-7.172 16.963-11.564 33.178-13.053 48.195a.57.57 0 01-.3.444 94.11 94.11 0 01-15.524 6.671l14.534.783a.574.574 0 01.417.216.568.568 0 01.111.456 86.176 86.176 0 00-1.437 18.06c21.271 2.113 36.152 1.615 45.487-1.523a.569.569 0 01.576.948c-9.556 9.223-23.416 13.892-41.215 13.892-.478-.001-.972-.004-1.471-.012z"/></g><path data-name="Path 2108" d="M4809.158 2371.52a.568.568 0 01-.568-.568v-78.258a.569.569 0 011.138 0v78.258a.569.569 0 01-.57.568z"/><path data-name="Path 2109" d="M4862.256 2367.87a.569.569 0 01-.55-.424 42.41 42.41 0 00-7.413-14.6.57.57 0 01.375-.9c30.667-4.395 59.5-8.6 75.225-11.756a.569.569 0 11.224 1.115c-15.6 3.13-44.015 7.284-74.345 11.632a42.821 42.821 0 017.036 14.225.569.569 0 01-.4.7.576.576 0 01-.152.008z"/><g data-name="Group 930"><path data-name="Path 2110" d="M4855.372 2353.356l-44.761 17.6h51.867s.124-8.232-7.106-17.6z" fill="#fff"/><path data-name="Path 2111" d="M4862.482 2371.521h-51.867a.569.569 0 01-.208-1.1l44.761-17.6a.569.569 0 01.659.182c7.262 9.418 7.229 17.608 7.225 17.952a.569.569 0 01-.57.566zm-48.866-1.137h48.274c-.13-1.957-.994-8.767-6.706-16.342z"/></g><path data-name="Path 2114" d="M4390.038 2283.564a.568.568 0 01-.56-.472l-5.722-33.202a.57.57 0 011.122-.194l5.63 32.657 67.459-10.31a.569.569 0 01.172 1.125l-68.011 10.394a.582.582 0 01-.09.002z"/><path data-name="Path 2116" d="M4992.702 2370.952c-37.947 1.76-89.8.832-147.156-1.16 0 0 1.56 8.44 12.274 8.986s86.333 3 106.263 3.685 35.694 1.5 39.583.614c0 0 8.6-54.8 12.422-83.195s7.825-54.508 6.188-64.427-5.087-11.648-6.73-11.784c0 0-.368 15.879-1.915 27.072s-7.643 47.683-9.646 59.24-11.283 60.969-11.283 60.969z" fill="#a6acb9"/><path data-name="Path 2117" d="M4986.109 2380.107c-15.691 0-42.281-.231-70.872-1.489-27.341-1.2-40.231-1.688-47.157-1.949-4.715-.177-6.868-.258-9.135-.395l-.661-.039c-5.36-.309-11.436-.661-14.781-9.333a.567.567 0 01.068-.535.58.58 0 01.484-.238c44.825 1.674 92.709 2.064 146.029 1.184 7.7-43.746 14.858-91.489 21.891-145.944a.568.568 0 01.893-.391l1.865 1.323a14.213 14.213 0 015.89 13.262c-6.4 54.273-12.747 101.371-19.4 143.984a.568.568 0 01-.554.481c-.143.003-5.558.079-14.56.079zm-141.216-12.808c3.115 7.2 8.144 7.494 13.456 7.8l.665.039c2.253.135 4.4.217 9.108.393 6.927.261 19.82.745 47.164 1.949 42.3 1.861 80.219 1.474 84.889 1.416q.823-5.28 1.641-10.659c-57.722 1.136-109.071.828-156.922-.938zm168.088-144.845c-6.983 53.992-14.1 101.388-21.739 144.841q5.336-.09 10.748-.2c5.966-39.343 11.71-82.569 17.5-131.669a13.077 13.077 0 00-5.418-12.2z"/><g data-name="Group 931"><path data-name="Path 2118" d="M4421.081 2280.733c-4.3 8.73 15.711 10.949 15.711 10.949l28.348 4.058 3.942-19.231-20.9-15.146h-23.526s-7.215 11.284-7.215 14.02 2.291 4.309 6.121 7.044 7.454 5.332 9.141 5.332 4.194-1.867 8.207-5.378 5.113-4.468 2.351-7.158a7.521 7.521 0 00-8.917-1.277" fill="#d6d1c3"/><path data-name="Path 2119" d="M4465.589 2296.379l-28.878-4.134c-.525-.058-13.287-1.531-16.2-6.849a4.976 4.976 0 01-.1-4.566c-2.248-1.745-3.539-3.223-3.539-5.446 0-2.82 6.557-13.156 7.306-14.326l.167-.262h24.021l21.346 15.469zm-44.238-14.843a3.768 3.768 0 00.156 3.312c1.07 1.954 4.039 3.656 8.583 4.922a48.634 48.634 0 006.765 1.347l27.835 3.984 3.761-18.347-20.453-14.822h-23.03c-2.859 4.5-6.958 11.6-6.958 13.451 0 2.382 2 3.808 5.628 6.4l.333.239c3.56 2.542 7.24 5.17 8.733 5.17 1.538 0 4.137-2 7.833-5.237 2.286-2 3.657-3.2 3.684-4.18.014-.554-.4-1.215-1.356-2.143a6.937 6.937 0 00-8.243-1.187l-.552-.994a8.068 8.068 0 019.589 1.366c1.214 1.184 1.723 2.077 1.7 2.988-.04 1.477-1.468 2.726-4.06 4.994-4.1 3.591-6.683 5.53-8.594 5.53-1.858 0-5.35-2.494-9.394-5.382l-.334-.239c-.579-.413-1.126-.801-1.626-1.172z" fill="#030404"/></g><g data-name="Group 932"><path data-name="Path 2120" d="M4468.28 2376.411s-7.461-115.931-7.643-134.495-2.821-22.022 9.736-22.226 132.948-1.706 153.422-1.706 82.764.592 89.815.592 8.008 4.049 7.326 11.1-12.1 90-15.379 114.7-4.323 32.031-4.323 32.031z" fill="#4f5b66"/><path data-name="Path 2121" d="M4698.324 2371.521a.532.532 0 01-.079-.006.569.569 0 01-.486-.641l19.977-144.972a9.59 9.59 0 00-9.5-10.9h-245.985a5.9 5.9 0 00-5.891 6.156l6.575 149.767a.574.574 0 01-.158.418.568.568 0 01-.412.176h-85.31a.569.569 0 110-1.137h84.715l-6.548-149.174a7.034 7.034 0 017.028-7.343h245.985a10.727 10.727 0 0110.627 12.19l-19.975 144.975a.57.57 0 01-.563.491z"/><path data-name="Path 2122" d="M4582.449 2280.5v6.779l-8.917 7.826 8.508 8.372-3 2.73-9.19-7.871v-7.007z" fill="#fff"/><path data-name="Path 2123" d="M4584.36 2291.647l-2.685 2.685 8.828 8.872-8.828 7.644v6.688l12.331-10.692v-6.916z" fill="#fff"/></g><g data-name="Group 933" fill="#454a55"><path data-name="Path 2124" d="M4237.581 2008.166h.1c4.358 0 5.193 5.066 5.353 8.594.017.363.008.726.023 1.04.087 4.6-1.051 8.351-5.157 8.537a5.2 5.2 0 01-1.043-.049s-.1-2.707-.125-3.819c-.067-3.1-.079-6.025-.1-9.17 0-.412-.106-3.941-.1-4.4l.018-.146c-.001-.42.669-.572 1.031-.587zm.508 17.092a2.137 2.137 0 00.268.012c3.067-.139 3.34-5.333 3.348-7.317.017-2.276-.353-8.312-3.772-8.447z"/><path data-name="Path 2125" d="M4246.1 2023.659l-.217-4.783c-.156-3.455-.6-5.662-.751-9.117l-.056-1.232c3.85-.49 4.3-.243 4.322.288.007.169-.1.537-.263.617l-2.633.119c-.169.008-.163.128-.161.2.116 2.561.444 4.435.708 7.061a27.131 27.131 0 002.8-.1c.822-.013 1.442 1.363.33 1.414l-3.068.139.3 5.651c.587.119 3.627-.624 3.676.439a.584.584 0 01-.43.649l-.121.006c-.89.113-4.309.534-4.365-.166z"/><path data-name="Path 2126" d="M4251.495 2008.6l-.031-.144c-.017-.362.438-.5.75-.542.749-.034.845.494 1.023 1.212.84 3.569 1.842 7.518 3.485 13.326l1.818-13.833a.831.831 0 01.72-.662c.387-.017.756.111.8.594l-2.078 13.965c-.1.392-.493 3.556-.952 3.577a.092.092 0 00-.072.028c-.244-.037-.482.022-.643-.309-1.684-5.712-2.966-11.536-4.82-17.212z"/><path data-name="Path 2127" d="M4263.469 2022.871l-.217-4.783c-.156-3.455-.595-5.662-.751-9.117l-.057-1.232c3.851-.489 4.3-.243 4.322.288.008.169-.1.537-.263.617l-2.633.12c-.17.007-.164.128-.161.2.116 2.561.443 4.434.708 7.061a26.884 26.884 0 002.8-.1c.822-.013 1.441 1.363.33 1.414l-3.068.139.3 5.651c.586.119 3.627-.625 3.676.438a.584.584 0 01-.432.649l-.12.005c-.891.113-4.309.534-4.364-.165z"/><path data-name="Path 2128" d="M4270.588 2006.378c.386-.018.722.451.835.809.44 5.451.667 10.985 1.4 16.447a12.693 12.693 0 012.875-.639c.436-.02.827.083.85.567a.636.636 0 01-.452.722c-.808.327-1.9.328-2.732.608a4.351 4.351 0 01-1.024.361.907.907 0 01-.779-.618c-.421-2.886-.441-6.007-.715-8.852l-.584-5.952-.14-3.068c.108-.269.248-.375.466-.385z"/><path data-name="Path 2129" d="M4279.388 2006.681c5.363-.243 6.866 16.9 1.573 17.6-.1 0-.192.033-.289.037-2.029.092-3.2-1.065-3.875-3.262-.381-1.434-3.472-14.1 2.591-14.375zm-1.483 13.212c.229.789 1.13 3.048 2.344 3.114a1.124 1.124 0 00.29-.013c1.611-.218 2.015-3.068 2.181-4.214.3-1.95.207-10.927-3.223-10.771l-.193.009c-3.633.502-1.938 10.133-1.399 11.875z"/><path data-name="Path 2130" d="M4287.055 2024.732c-.1-2.8-.6-15.853-.677-18.682a1.677 1.677 0 011.113-.535c3.116-.141 4.757 2.4 4.888 5.3.157 3.455-1.205 5.453-3.98 7.249l-.1 1.482c-.012.8.059 4.5.07 5.274-.1.416-.217.542-.628.561-.338.015-.659-.115-.678-.55zm1.054-9.32l.047 1.039a2.01 2.01 0 00.8-.424 5.4 5.4 0 001.789-4.85c-.067-1.5-.389-4.315-2.515-4.219-.146.007-.266.012-.33.209z"/><path data-name="Path 2131" d="M4294.87 2021.448l-.216-4.783c-.158-3.455-.6-5.662-.752-9.117l-.057-1.232c3.851-.489 4.3-.243 4.323.288.007.169-.1.537-.263.617l-2.633.119c-.169.008-.163.128-.16.2.116 2.561.442 4.434.708 7.061a27 27 0 002.8-.1c.822-.013 1.441 1.363.331 1.413l-3.068.14.3 5.651c.587.119 3.628-.625 3.676.438a.585.585 0 01-.431.649l-.12.006c-.892.113-4.311.534-4.366-.166z"/><path data-name="Path 2132" d="M4302.252 2013.948c-.034-.749-.354-5.141-.454-6.274a99.657 99.657 0 00-.289-2.625v-.1c-.025-.556.6-.729 1.079-.751 3.334-.151 4.626 2.187 4.752 4.965a5.252 5.252 0 01-2.18 4.8c2.834 1.106 3.689 5.013 3.812 7.719.02.436-.238.616-.673.636-.291.013-.411.018-.549-.362-.2-1.807-.894-6.907-3.7-6.78-.023 0-.192.033-.24.035-.142 2.742.2 5.486.156 8.248a.779.779 0 01-1.28.058c-.042-1.453-.345-8.12-.434-9.569zm1.3-.64c1.7-.416 2.557-2.343 2.487-3.865-.059-1.281-.71-3.914-2.45-3.835-.1 0-.845.038-.837.231z"/></g><g data-name="Group 934" fill="#454a55"><path data-name="Path 2133" d="M4399.19 1927.35c-.3-2.79-1.7-15.773-1.978-18.589a1.677 1.677 0 011.073-.611c3.1-.358 4.912 2.062 5.245 4.944.4 3.436-.822 5.524-3.465 7.509v1.485c.043.8.372 4.485.437 5.257-.072.422-.179.556-.587.6-.337.039-.666-.069-.716-.5zm.4-9.37l.119 1.033a2 2 0 00.772-.479 5.4 5.4 0 001.447-4.963c-.172-1.489-.689-4.278-2.8-4.033-.145.017-.264.03-.314.231z"/><path data-name="Path 2134" d="M4406.68 1916.334c-.085-.745-.711-5.1-.89-6.227-.027-.24-.416-2.338-.47-2.6l-.011-.1c-.064-.553.543-.769 1.024-.824 3.315-.383 4.768 1.859 5.086 4.622a5.252 5.252 0 01-1.838 4.935c2.9.906 4.028 4.745 4.34 7.435.05.433-.2.631-.627.681-.288.033-.409.047-.573-.323-.328-1.788-1.373-6.828-4.16-6.507-.024 0-.189.046-.237.052.049 2.746.582 5.459.729 8.217a.779.779 0 01-1.272.147c-.143-1.439-.91-8.07-1.101-9.508zm1.256-.729c1.665-.533 2.387-2.516 2.212-4.029-.147-1.274-.981-3.855-2.711-3.656-.1.011-.84.1-.818.29z"/><path data-name="Path 2135" d="M4417.234 1906.764c5.333-.616 8.027 16.381 2.795 17.448-.1.011-.189.046-.286.057-2.017.233-3.262-.84-4.093-2.983-.478-1.406-4.445-13.825 1.584-14.522zm-.559 13.283c.284.771 1.34 2.961 2.555 2.943a1.124 1.124 0 00.288-.033c1.593-.33 1.8-3.2 1.883-4.356.162-1.966-.556-10.915-3.967-10.521l-.191.022c-3.589.756-1.227 10.245-.567 11.945z"/><path data-name="Path 2136" d="M4425.522 1905.393l.1-.011c4.346-.307 5.533 4.692 5.938 8.2.042.36.06.723.1 1.036.407 4.578-.466 8.4-4.55 8.876a5.228 5.228 0 01-1.045.023s-.286-2.694-.389-3.8c-.284-3.083-.5-6-.741-9.141-.023-.411-.38-3.924-.408-4.383l.007-.147c-.031-.414.628-.612.988-.653zm1.7 17.015a2 2 0 00.267-.007c3.051-.352 2.961-5.552 2.831-7.533-.141-2.272-.931-8.267-4.352-8.164z"/><path data-name="Path 2137" d="M4433.38 1904.729a.951.951 0 01.566-.358c.866-.1.923.819.971 1.446l.017.144c.229 2.408.213 4.8.442 7.2.141 1.639.133 8.311 2.7 8.013 1.177-.136 1.7-2.534 1.785-3.3a63.516 63.516 0 00-.043-13.019l-.061-.528c-.042-.361.425-.536.737-.572a.765.765 0 01.828.635l.019.363a96.771 96.771 0 01.068 10.922l-.011.318c-.02.051-.009.147-.045.249-.088 1.763-.326 5.807-2.994 6.115-3.05.353-3.669-2.887-3.91-4.977l-.051-.433c-.016-.144-.35-3.246-.459-4.4-.222-2.599-.522-5.193-.559-7.818z"/><path data-name="Path 2138" d="M4447.482 1903.537l.168-.02c.967-.063 2.178.308 2.313 1.485.029.24-.01.537-.346.575-.8.068-1.027-.879-1.93-.9a.883.883 0 00-.147-.007c-3.291.38-3.806 15.728 1.747 15.33l.12-.014c1.73-.2.8-2.356 2.168-2.515l.072-.008a.521.521 0 01.637.462c.025.435-.094.449-.252.979a2.768 2.768 0 01-2.485 2.088l-.216.025c-4.662.32-5.57-6.075-5.619-9.234-.173-2.338.238-7.839 3.77-8.246z"/><path data-name="Path 2139" d="M4454.957 1910.099c-.213-1.85-.776-6.507-.8-6.529l-1.931.15c-.794-.127-1.168-.839-.023-1.263 1.879-.168 3.7-.427 5.662-.508 1.092-.028 1.158 1.181.462 1.262l-2.624.254c-.021.027.762 7.654 1.073 10.758.114.985.231 2.846.364 4l.037.312c-.109.743-1.119.64-1.365-.013-.177-1.709-.656-6.694-.855-8.423z"/><path data-name="Path 2140" d="M4469.336 1907.294c-.352-3.879-.361-6.7.264-6.774a.15.15 0 01.1.013c.134.106.695.115.908.7.635 1.7 1.652 4.824 3.3 6.678a28.268 28.268 0 001.262-2.775l.1-.206a29.616 29.616 0 001.566-4.563.7.7 0 01.646-.513 1.328 1.328 0 01.858.266c.448 5.353 1.163 10.7 1.659 16.046l.109 1.156a.869.869 0 01-.7.666.9.9 0 01-.591-.272l-.141-1.42c-.407-4.359-1.1-8.685-1.435-13.053-.457 1.1-.914 2.2-1.294 3.339-.175.385-.932 2.469-1.091 2.975-.109.329-.671 1.149-1.126.374-3.033-5.176-3.1-5.167-3.129-5.165a121.323 121.323 0 00.9 13.261.56.56 0 01-.452.515 1.135 1.135 0 01-.711-.259z"/><path data-name="Path 2141" d="M4481.868 1900.1c-.112-2.227 1.4-1.817 1.993-.23.879 2.333 1.588 4.466 5.678 16.9.061.528-.613 1.02-1.134.3l-1.365-4.224-3.187.855c-.062 1.151.017 3.309.086 4.323.019.582-1.031.557-1.057.122zm1.75 11.142c0 .171.079 1.111.1 1.3l2.953-.779-3.589-10.418c.074 1.478.436 8.399.536 9.897z"/><path data-name="Path 2142" d="M4489.603 1899.206c.357-.918 1.142-.229 1.42.079 1.92 3.965 3.391 8.056 5.641 12.153l-.148-3.391c-.085-3.057-.364-5.679-.738-8.7a.9.9 0 01.844-.706.716.716 0 01.709.235c.167 5.239.613 10.786 1.083 16.331l.013.315c-.035.125-.308.5-.524.523a1.113 1.113 0 01-.725-.379c-2.009-4.32-4.2-8.522-6.162-12.872l1.414 13.712c-.408 1.313-1.324.762-1.431.044z"/><path data-name="Path 2143" d="M4500.075 1897.996c-.111-2.227 1.4-1.817 1.994-.23.877 2.333 1.587 4.466 5.677 16.9.061.528-.612 1.02-1.133.3l-1.366-4.225-3.187.855c-.062 1.151.017 3.309.085 4.323.018.582-1.031.557-1.057.122zm1.75 11.142c-.005.171.079 1.111.1 1.3l2.952-.78-3.589-10.418c.075 1.479.437 8.4.538 9.898z"/><path data-name="Path 2144" d="M4508.041 1904.571c-.219-1.9-.211-5.623 1.762-6.874 1.135-.715 4.286-.836 4.507 1.086a.525.525 0 01-.459.662c-.865.1-1.327-1.162-2.553-1.02l-.1.011c-2.22.378-2.216 3.786-2.007 5.588l.055.481a35.443 35.443 0 001.368 6.366c.371 1.1 1.158 2.228 2.552 2.067l.12-.014c2.172-.373 1.913-3.24 1.683-4.6l-.6-3.533a20.58 20.58 0 01-2.147.37c-.233-.119-.375-.711-.377-.736-.083-.721 1.591-.768 3.15-.972.743.109.786 1.321 1.029 2.8l.028.24c.447 2.6 1.176 7.021-2.288 7.592a3.214 3.214 0 01-.481.056c-3.219.57-4.518-3.297-5.242-9.57z"/><path data-name="Path 2145" d="M4519.362 1910.52l-.55-4.757c-.4-3.435-.988-5.607-1.385-9.042l-.142-1.225c3.808-.757 4.271-.542 4.331-.014.02.168-.058.542-.219.634l-2.619.3c-.167.019-.154.139-.146.211.294 2.547.751 4.392 1.2 6.995a26.973 26.973 0 002.79-.3c.819-.071 1.533 1.259.427 1.387l-3.05.352.7 5.616c.593.077 3.575-.875 3.7.181a.585.585 0 01-.385.677l-.12.014c-.88.175-4.261.833-4.367.139z"/><path data-name="Path 2146" d="M4526.205 1902.524c-.085-.745-.712-5.1-.89-6.227-.028-.24-.417-2.338-.472-2.6l-.011-.1c-.063-.552.544-.769 1.024-.824 3.315-.383 4.768 1.859 5.087 4.622a5.251 5.251 0 01-1.84 4.935c2.9.906 4.029 4.744 4.34 7.435.05.433-.194.632-.627.682-.288.033-.409.047-.572-.323-.329-1.788-1.375-6.828-4.16-6.506-.025 0-.189.046-.237.052.049 2.746.581 5.459.729 8.217a.779.779 0 01-1.272.147 649.529 649.529 0 00-1.099-9.51zm1.254-.729c1.667-.534 2.388-2.515 2.213-4.029-.146-1.273-.98-3.855-2.711-3.655-.1.011-.84.1-.818.289z"/></g><g data-name="Group 935" fill="#454a55"><path data-name="Path 2147" d="M4676.074 1972.246a.961.961 0 01.632-.227c.866.09.724 1 .636 1.622l-.016.144c-.3 2.4-.828 4.728-1.125 7.129-.217 1.631-1.666 8.142.907 8.408 1.179.121 2.211-2.106 2.456-2.834a63.427 63.427 0 002.771-12.721l.055-.529c.037-.361.531-.431.843-.4a.766.766 0 01.672.8l-.061.358a96.929 96.929 0 01-2.293 10.679l-.081.307a1.981 1.981 0 01-.1.233c-.467 1.7-1.574 5.6-4.244 5.324-3.054-.315-2.958-3.611-2.742-5.7l.044-.434c.015-.144.359-3.245.5-4.4.347-2.59.615-5.189 1.146-7.759z"/><path data-name="Path 2148" d="M4684.762 1991.958a2.966 2.966 0 01-.459-.023c-.289-.03-.8-.034-.754-.467l.01-.1c.031-.07.361-.668.395-.761.534-1.161 2.976-6.695 3.485-7.857l.036-.337a3.82 3.82 0 00-.145-1.425c-.157-.6-.837-3.441-1.015-4.068-.085-.349-.59-2.055-.695-2.454-.085-.349-.279-.588-.24-.973.05-.481.2-.491.654-.443.89.092 1.088 1.231 1.283 1.931.166.747 1.043 4.265 1.207 5.035l1.891-4.424c.206-.587.656-2.583 1.636-2.19.514.2.394.892.328 1.3l-1.814 3.921c-.383.885-1.271 3.127-1.279 3.2l-.1.937c0 .025.5 2.435.743 3.407.511 2.119 1.145 4.227 1.557 6.36-.235.389-.387.446-.724.411a.742.742 0 01-.557-.252l-.114-.3c-.072-.25-.492-2.068-.566-2.295-.38-1.5-.731-3.042-1.109-4.564a4.895 4.895 0 00-.233-.8z"/><path data-name="Path 2149" d="M4704.578 1974.943l.1.009c4.31.639 4.388 5.777 4.025 9.289-.038.361-.1.719-.131 1.032-.592 4.559-2.27 8.1-6.359 7.683a5.159 5.159 0 01-1.024-.2s.3-2.691.439-3.8c.391-3.072.811-5.97 1.253-9.085.067-.407.478-3.914.548-4.368l.039-.142c.064-.407.749-.456 1.11-.418zm-2.02 16.979a2.082 2.082 0 00.263.051c3.055.315 4.091-4.781 4.391-6.743.354-2.25.878-8.273-2.484-8.911z"/><path data-name="Path 2150" d="M4710.719 1991.524l.492-4.763c.354-3.44.246-5.687.6-9.128l.126-1.227c3.881.085 4.287.394 4.232.923-.017.169-.174.517-.35.572l-2.623-.271c-.168-.017-.181.1-.188.176-.264 2.55-.216 4.451-.342 7.087a26.974 26.974 0 002.788.312c.815.108 1.224 1.561.118 1.447l-3.055-.315-.533 5.634c.563.2 3.68-.083 3.57.976a.584.584 0 01-.521.578l-.121-.012c-.9-.02-4.34-.108-4.292-.808z"/><path data-name="Path 2151" d="M4717.867 1992.214c.875.236.585 1.4 1.533 1.641 1.537.426 2.012-.644 2.362-1.92.713-2.674-.4-4.855-1.608-7.265a4.372 4.372 0 01-.476-3.4c.533-1.865 1.581-3.07 3.577-2.865a4.216 4.216 0 01.527.079c.642.139 1.084.33.894.991-.338 1.157-2.681-1.1-3.583 2.208-.423 1.512.138 2.2.813 3.682 1.046 2.344 1.949 4.431 1.248 6.985-.541 1.938-1.477 3.007-3.426 2.807a4.71 4.71 0 01-.574-.084c-.828-.231-2.21-1.2-2.108-2.187 0-.048.037-.118.042-.166a.759.759 0 01.779-.506z"/><path data-name="Path 2152" d="M4728.535 1978.582l-.456 14.782a11.976 11.976 0 01-.012 1.288c-.063.383-.463.487-.872.445-.529-.055-.578-.522-.6-.987l.488-10.622c.058-1.744-.028-3.5.2-5.231.083-.598 1.264-.257 1.252.325z"/><path data-name="Path 2153" d="M4731.349 1986.408c.2-1.9 1.009-5.536 3.206-6.331 1.263-.453 4.365.11 4.166 2.035-.029.289-.182.589-.591.547-.865-.089-1.044-1.42-2.271-1.548l-.1-.01c-2.25-.111-2.983 3.218-3.168 5.021l-.049.481a35.468 35.468 0 00-.041 6.511c.124 1.155.65 2.425 2.044 2.569l.12.012c2.2.105 2.569-2.75 2.638-4.128l.175-3.58a20.656 20.656 0 01-2.178-.1c-.2-.167-.212-.776-.209-.8.075-.722 1.72-.407 3.286-.269.7.267.481 1.46.4 2.959l-.024.24c-.126 2.637-.37 7.11-3.875 6.918a3.305 3.305 0 01-.481-.05c-3.263-.142-3.697-4.199-3.048-10.477z"/><path data-name="Path 2154" d="M4742.89 1980.111c.546-.819 1.165.023 1.37.385 1.016 4.286 1.568 8.6 2.88 13.085l.588-3.343c.577-3 .872-5.623 1.161-8.656a.9.9 0 01.976-.507.716.716 0 01.641.383c-.968 5.151-1.732 10.664-2.471 16.179l-.056.31c-.061.115-.408.42-.625.4a1.114 1.114 0 01-.627-.526c-1.027-4.652-2.257-9.228-3.234-13.9l-1.583 13.694c-.683 1.194-1.458.457-1.407-.267z"/><path data-name="Path 2155" d="M4751.799 1995.763l.492-4.763c.355-3.439.247-5.687.6-9.127l.126-1.227c3.881.084 4.287.394 4.232.923-.018.168-.175.517-.351.572l-2.621-.271c-.169-.017-.181.1-.188.175-.264 2.55-.217 4.451-.343 7.088a27.145 27.145 0 002.788.312c.816.108 1.225 1.561.119 1.446l-3.056-.315-.532 5.634c.563.2 3.679-.082 3.57.977a.584.584 0 01-.521.579l-.12-.013c-.9-.02-4.34-.107-4.292-.808z"/><path data-name="Path 2156" d="M4760.208 1989.435c.076-.746.408-5.136.477-6.272.024-.241.1-2.372.1-2.639l.01-.1c.058-.553.7-.633 1.178-.584 3.32.343 4.253 2.846 3.967 5.612a5.252 5.252 0 01-2.863 4.421c2.64 1.512 2.909 5.5 2.631 8.2-.045.434-.326.574-.759.53-.289-.029-.409-.042-.489-.439.065-1.817.134-6.963-2.657-7.251h-.242c-.545 2.692-.612 5.456-1.063 8.181a.78.78 0 01-1.275-.132c.175-1.442.859-8.081.985-9.527zm1.382-.441c1.743-.161 2.875-1.941 3.032-3.456.131-1.275-.125-3.975-1.857-4.154-.1-.01-.841-.086-.861.106z"/></g><g data-name="Group 936" fill="#454a55"><path data-name="Path 2157" d="M4881.792 2025.399l.1.005c4.335.434 4.658 5.562 4.462 9.087-.02.362-.063.723-.082 1.037-.374 4.581-1.882 8.2-5.988 7.977a5.2 5.2 0 01-1.032-.154s.174-2.7.259-3.813c.244-3.086.526-6 .82-9.134.047-.409.291-3.932.339-4.389l.032-.144c.045-.409.728-.492 1.09-.472zm-1.209 17.056a2.175 2.175 0 00.264.039c3.067.169 3.86-4.97 4.066-6.944.246-2.263.482-8.3-2.906-8.783z"/><path data-name="Path 2158" d="M4888.715 2041.67l.264-4.781c.191-3.453-.024-5.693.167-9.146l.067-1.231c3.881-.1 4.3.189 4.271.721-.009.169-.149.524-.323.587l-2.632-.146c-.169-.009-.176.112-.18.184-.141 2.56 0 4.456 0 7.1a26.913 26.913 0 002.8.179c.82.069 1.3 1.5.187 1.439l-3.066-.169-.264 5.653c.571.177 3.671-.257 3.613.8a.586.586 0 01-.5.6l-.12-.007c-.9.023-4.341.1-4.326-.6z"/><path data-name="Path 2159" d="M4895.59 2027.228l-.016-.146c.02-.362.484-.458.8-.465.748.042.79.577.9 1.309.477 3.635 1.078 7.665 2.13 13.609l3.2-13.58a.831.831 0 01.784-.586c.386.021.74.186.738.671l-3.469 13.686c-.143.38-.848 3.489-1.307 3.464a.086.086 0 00-.073.02c-.239-.062-.483-.027-.609-.373-1.114-5.851-1.802-11.774-3.078-17.609z"/><path data-name="Path 2160" d="M4906.072 2042.63l.264-4.781c.191-3.453-.025-5.693.167-9.146l.068-1.231c3.881-.1 4.3.189 4.271.72-.009.169-.15.525-.323.587l-2.632-.145c-.168-.01-.175.112-.179.184-.142 2.559 0 4.456 0 7.1a26.863 26.863 0 002.8.179c.82.069 1.3 1.5.187 1.439l-3.067-.17-.263 5.653c.571.177 3.671-.258 3.612.805a.584.584 0 01-.494.6l-.12-.007c-.9.023-4.341.1-4.326-.6z"/><path data-name="Path 2161" d="M4914.812 2026.938c.386.021.673.521.75.889-.108 5.467-.438 11-.259 16.5a12.721 12.721 0 012.925-.347c.435.024.815.166.788.649a.634.634 0 01-.521.674c-.836.244-1.921.136-2.779.331a4.38 4.38 0 01-1.056.256.906.906 0 01-.713-.693c-.13-2.914.164-6.022.176-8.879l.016-5.981.168-3.067a.5.5 0 01.505-.332z"/><path data-name="Path 2162" d="M4923.537 2028.119c5.362.3 5.136 17.5-.2 17.67-.1-.006-.195.013-.291.008-2.029-.112-3.072-1.381-3.529-3.635-.235-1.465-2.04-14.378 4.02-14.043zm-2.8 13c.15.807.82 3.145 2.021 3.333a1.136 1.136 0 00.29.016c1.626-.056 2.314-2.852 2.594-3.974.493-1.91 1.3-10.851-2.126-11.041l-.193-.01c-3.666.133-2.949 9.885-2.588 11.673z"/><path data-name="Path 2163" d="M4929.353 2046.848c.18-2.8 1-15.833 1.2-18.656a1.676 1.676 0 011.162-.42c3.114.172 4.492 2.865 4.332 5.761-.192 3.454-1.747 5.3-4.687 6.813l-.252 1.463c-.091.794-.392 4.483-.459 5.255-.144.4-.271.518-.681.495-.339-.019-.644-.181-.62-.616zm1.984-9.166l-.058 1.038a2 2 0 00.843-.341 5.405 5.405 0 002.267-4.646c.082-1.5.045-4.333-2.079-4.45-.146-.008-.267-.015-.35.175z"/><path data-name="Path 2164" d="M4937.456 2044.365l.264-4.781c.191-3.453-.023-5.693.167-9.146l.068-1.231c3.881-.1 4.3.189 4.271.72-.009.169-.149.525-.322.588l-2.633-.146c-.169-.009-.176.112-.18.184-.142 2.559 0 4.456 0 7.1a27.083 27.083 0 002.8.179c.82.069 1.3 1.5.187 1.439l-3.066-.169-.264 5.653c.571.177 3.671-.258 3.612.805a.583.583 0 01-.494.6l-.119-.006c-.9.023-4.341.1-4.327-.6z"/><path data-name="Path 2165" d="M4945.557 2037.644c.042-.749.163-5.15.178-6.287.014-.241-.014-2.375-.023-2.641l.006-.1c.03-.555.666-.665 1.148-.639 3.333.184 4.384 2.64 4.23 5.417a5.255 5.255 0 01-2.65 4.553c2.709 1.385 3.168 5.358 3.019 8.062-.024.435-.3.589-.733.565-.29-.016-.411-.022-.511-.416-.021-1.818-.2-6.962-3-7.117-.023 0-.194.014-.242.011-.417 2.714-.352 5.479-.673 8.222a.78.78 0 01-1.28-.071c.106-1.444.475-8.109.531-9.559zm1.359-.506c1.734-.243 2.779-2.075 2.863-3.6.071-1.28-.313-3.965-2.052-4.061-.1-.005-.846-.047-.856.146z"/></g><g data-name="Group 937"><path data-name="Path 2166" d="M4411.274 2280.732c4.3 8.73-15.711 10.949-15.711 10.949l-20.205.194-12.084-15.367 20.9-15.146h23.525s7.215 11.284 7.215 14.02-2.291 4.309-6.121 7.044-7.455 5.332-9.142 5.332-4.194-1.867-8.207-5.378-5.113-4.468-2.352-7.158a7.522 7.522 0 018.917-1.277" fill="#fff"/><path data-name="Path 2167" d="M4375.361 2292.445a.569.569 0 01-.448-.217l-12.083-15.367a.57.57 0 01.113-.814l20.9-15.146a.573.573 0 01.334-.108h23.526a.57.57 0 01.48.263c.747 1.169 7.3 11.506 7.3 14.327 0 2.223-1.29 3.7-3.538 5.446a4.983 4.983 0 01-.1 4.567c-2.916 5.319-15.679 6.792-16.221 6.852a.493.493 0 01-.058 0l-20.206.193zm20.207-.763zm-31.476-15.059l11.544 14.68 19.9-.191a48.724 48.724 0 006.737-1.343c4.544-1.266 7.512-2.967 8.583-4.921a3.769 3.769 0 00.156-3.31c-.5.371-1.048.758-1.625 1.171l-.329.236c-4.046 2.889-7.541 5.385-9.4 5.385-1.912 0-4.491-1.939-8.582-5.519-2.605-2.28-4.033-3.529-4.072-5.006-.025-.911.483-1.8 1.7-2.989a8.069 8.069 0 019.59-1.367.571.571 0 11-.553 1 6.936 6.936 0 00-8.242 1.187c-.952.927-1.37 1.588-1.354 2.142.026.979 1.4 2.179 3.669 4.167 3.709 3.245 6.309 5.249 7.845 5.249 1.493 0 5.175-2.63 8.735-5.173l.33-.235c3.628-2.591 5.627-4.018 5.627-6.4 0-1.848-4.1-8.951-6.958-13.45h-23.032z"/></g><path data-name="Path 2168" d="M4361.983 2273.777c-6.395-22.288-16.717-29.8-22.54-34.94s-13.976-12.605-13.976-12.605l-1.438-9.009s-11.885-2.332-12.674-2.364-2.364 2.877-2.432 5.867-.741 2.971-.741 2.971a80.515 80.515 0 01-39.51-2.844l-1.574 2.18-4.111-1.46-1.471 7.314a39.173 39.173 0 00-15.656 11.731l-1.4 1.9a87.459 87.459 0 00-14.287 30.134 158.068 158.068 0 00-4.7 30.387l-3.145 51.86v15.981h143.763l-.412-54.031 17.4-16.761z" fill="#1483de"/><path data-name="Path 2169" d="M4257.685 2168.644c-2.489-10.469-12.287-43.2-13.623-53.881-1.5-12-2.07-18.979 2.266-30.281.709-1.851 6.42-7.793 8.292-8.449a6.675 6.675 0 012.8-.181 40.1 40.1 0 0110.83 2.521 69.3 69.3 0 018.644-9.752c1.614-1.588 3.435-3.161 5.665-3.544s4.9.941 5.155 3.189a71.449 71.449 0 012.775-6.656c1.346-2.725 2.981-5.48 5.594-7.032a14.121 14.121 0 0111.287-.72c3.911 1.59 4.629 2.94 8.241 5.187 2.66 1.656 6.7-5.2 9.3-6.956a65.7 65.7 0 019.054-4.431 38.178 38.178 0 017.5-1.76 74.4 74.4 0 009.924-1.864c2.6-.746 10.388-1.461 11.646-.919 3.9 1.678 7.924 3.849 9.88 7.615 1.525 2.935 1.552 6.425 1.1 9.7-.821 5.932-3.272 8.672-6.184 13.817a29.369 29.369 0 01-10.088 10.552c-5.021 3.36-12.02 6.513-17.4 9.324.231.949-22.112 8.25-33.99 8.564-5.57.147-11.388-.045-16.41 2.368-8.75 4.2-12.437 13.426-14.925 22.188a105.6 105.6 0 00-3.7 30.117c.043 3.665-16.647 9.255-13.633 11.284z" fill="#4c3e33"/><g data-name="Group 938"><path data-name="Path 2170" d="M4269.907 2199.285c.193-14.069-3.982-18.657-3.982-18.657-4.24-6.92-14.281-5.628-14.281-5.628-14 1.837-17.376-9.79-17.376-9.79a30.644 30.644 0 01-2.348-19.537c1.58-5.971 7.979-5.832 7.979-5.832 7.539.56 10.915 7.846 10.915 7.846l9.227 17.5c4.269-.2 4.426-2.766 4.426-2.766l1.046-3.131.78-7.794-.389-9.488-1.166-11.5-1.125-6.865-2.2-7.1-4.315-3.014 6.478-5.057 6.142-3.513 9.975-3.84 13.418-1.534 12.56-.791 14.116-.4 10.135-.739 7.6-1.868a206.332 206.332 0 0114.688 47.778s14.523 9.909 14.523 10.549-7.672 3.837-13.335 7.308-8.77 5.39-8.77 5.938 2.283 7.033 2.283 7.033c-19.365 3.585-37.384 2.535-53.8-4.019 4.143 11.809 20.13 17.657 50.148 16.442 0 0-7.308 10.688-15.163 17.63s-16.671 8.838-17.493 10.756-1.576 8.355-1.576 8.355-16.665 3.769-40.805-2.832c0 0 2.508-6.6 1.778-19.842s-1.531-25.9-15.848-25.9c-9.592 0-14.661.868-19.229-8.358s-7.01-26.787 4.979-26.787c5.891 0 10.414 6.235 13.085 11.715s7.056 13.633 7.056 13.633 7.673 3.083 6.029-20.9-4.659-27.746-4.659-27.746-4.384-1.918-4.315-3.014 11.9-9.386 19.844-11.487 22.015-3.2 36.173-3.471" fill="#fff"/><path data-name="Path 2171" d="M4296.2 2225.179a107.1 107.1 0 01-28.129-3.9.569.569 0 01-.381-.751c.852-2.254 2.312-9.254 1.741-19.609l-.087-1.561a.482.482 0 010-.071c-.4-7.079-.96-13.8-3.829-18.265l-.007-.008a.647.647 0 01-.063-.084q-.086-.142-.179-.281a11.469 11.469 0 00-1.8-2.055 13.015 13.015 0 00-6.333-2.8 23.162 23.162 0 00-.548-.091 20.427 20.427 0 00-2.428-.138c-.786 0-1.541.005-2.268.011h-.2a19.546 19.546 0 01-7.254-.312 11.58 11.58 0 01-8.422-5.58 14.968 14.968 0 01-2.271-4.265 33.162 33.162 0 01-2.933-11.017 21.65 21.65 0 01.582-8.92 8 8 0 011.9-3.479 8.326 8.326 0 016.583-2.723h.029a9.665 9.665 0 014.795 1.327 15.921 15.921 0 016.608 6.79 38.523 38.523 0 012.193 3.917 295.572 295.572 0 003.041 6.016l3.835 7.276a5.424 5.424 0 002.359-.664 5.792 5.792 0 001.187-1.66.287.287 0 01.009-.031l1.027-3.071.757-7.572c0-.1 0-.2.005-.3l-.379-9.248-1.137-11.214-.067-.511-1.073-6.544-2.114-6.812c-1.787-.8-4.491-2.22-4.418-3.462a.566.566 0 01.054-.212c.6-1.443 6.046-4.9 7.181-5.6 2.844-1.776 8.321-4.942 13.033-6.188q.475-.125.985-.248l1.706-.656a.553.553 0 01.139-.034l5.027-.575c2.491-.358 5.263-.675 8.274-.946l.117-.013h.028l.11-.007c5.863-.52 12.614-.867 19.919-1.008a.63.63 0 01.1.007l6.555-.188 10.075-.734 7.555-1.857a.567.567 0 01.655.321 208.1 208.1 0 0114.686 47.674c.807.552 3.957 2.71 7.071 4.9 7.5 5.284 7.5 5.561 7.5 5.979 0 .63-.611.976-4.859 3.1-2.646 1.323-5.938 2.969-8.749 4.692-4.067 2.493-7.917 4.852-8.482 5.538.157.72 1.375 4.313 2.235 6.759a.569.569 0 01-.432.748c-19.429 3.6-37.218 2.394-52.9-3.575 2.281 5.19 7.168 9.076 14.546 11.563 8.274 2.788 19.9 3.9 34.573 3.308a.556.556 0 01.52.292.569.569 0 01-.028.6c-.073.107-7.437 10.825-15.255 17.735a53.387 53.387 0 01-13.26 8.174c-1.974.925-3.837 1.8-4.087 2.38-.78 1.821-1.526 8.135-1.534 8.2a.57.57 0 01-.44.489 66.17 66.17 0 01-12.949 1.044zm-27.248-4.844c21.422 5.736 36.942 3.242 39.559 2.746.183-1.47.837-6.4 1.568-8.1.42-.979 2.011-1.725 4.649-2.962a51.612 51.612 0 0012.99-8c6.372-5.631 12.452-13.846 14.414-16.592-14.267.5-25.646-.65-33.833-3.409-8.282-2.792-13.573-7.319-15.726-13.456a.569.569 0 01.748-.716c15.6 6.228 33.371 7.609 52.834 4.107a65.043 65.043 0 01-2.094-6.594c0-.783 1.013-1.5 9.04-6.422 2.852-1.749 6.169-3.407 8.835-4.74 1.643-.821 3.332-1.666 4.019-2.113-1.622-1.435-9.239-6.757-14.064-10.05a.566.566 0 01-.239-.37 206.9 206.9 0 00-14.455-47.212l-7.138 1.755a.533.533 0 01-.094.015l-10.136.739h-.024l-14.118.4-12.467.785-.121.011-8.347.955c-2.525.365-4.751.773-6.63 1.219l-8.16 3.142-6.068 3.472-5.839 4.558 3.685 2.573a.556.556 0 01.074.061l.033.039v.005l.006.008c.131.174 1.147 1.657 2.293 7.278a.47.47 0 01.017.07l.007.047c.366 1.808.744 4.039 1.111 6.782l.006.037v.07c.482 3.628.944 8.148 1.329 13.767.6 8.751.053 14.906-1.626 18.38a3.377 3.377 0 01-1.624 2.24c-.11.1-.222.186-.337.27a3.491 3.491 0 01-3.205.578.567.567 0 01-.307-.268 628.707 628.707 0 01-4.007-7.6l-5.219-9.9c0-.008-.01-.018-.014-.026a19.844 19.844 0 00-5.678-6.051 11.213 11.213 0 00-4.741-1.463h-.187a8.361 8.361 0 00-5.375 2.146 7.2 7.2 0 00-.892 1.163 9.716 9.716 0 00-1.065 2.568 29.708 29.708 0 00.163 11.846 36.3 36.3 0 001.929 6.088q.16.373.334.749a.49.49 0 01.029.08l.015.046q.287.64.6 1.279a23.821 23.821 0 001.5 2.64 14.489 14.489 0 001.213 1.418 13.435 13.435 0 006.211 3.65 40.412 40.412 0 007.247.348 20.747 20.747 0 015.645.2 12.792 12.792 0 017.419 3.519 11.126 11.126 0 011.594 1.944c.048.072.1.145.143.218.548.657 4.247 5.6 4.07 18.942l.089 1.594c.641 11.161-.996 17.593-1.588 19.498zm97.28-65.971z"/></g><path data-name="Path 2172" d="M4295.298 2240.744h-.494a56.737 56.737 0 01-36.229-13.484.566.566 0 01-.2-.45l.273-9.226a.568.568 0 01.789-.508c10.29 4.309 23.382 6.836 35.92 6.932 12.152.088 22.136-2.19 26.7-6.108a.568.568 0 01.937.391l.914 12.789a.571.571 0 01-.188.464c-6.442 5.775-17.042 9.2-28.422 9.2zm-35.777-14.175a55.6 55.6 0 0035.292 13.036c11.171.1 21.587-3.161 27.942-8.726l-.817-11.437c-5.106 3.726-14.681 5.8-26.589 5.7a100.344 100.344 0 01-35.587-6.706z"/><path data-name="Path 2173" d="M4322.426 2218.899a.565.565 0 01-.18-.029l-11.273-3.77a.568.568 0 11.36-1.078l11.273 3.769a.569.569 0 01-.181 1.108z"/><path data-name="Path 2174" d="M4259.219 2218.169a.569.569 0 01-.213-1.1l10.5-4.246a.569.569 0 01.426 1.055l-10.5 4.246a.57.57 0 01-.213.045z"/><path data-name="Path 2175" d="M4218.519 2371.446h-.017a.568.568 0 01-.551-.585l.7-23.95c-.062-35.12 3.222-63 10.04-85.226a58.12 58.12 0 0129.785-35.265l.217-.106a.57.57 0 11.5 1.023l-.216.105a56.983 56.983 0 00-29.2 34.576c-6.784 22.113-10.052 49.886-9.991 84.908l-.7 23.968a.568.568 0 01-.567.552z"/><path data-name="Path 2176" d="M4359.085 2276.573a.568.568 0 01-.553-.442c-4.916-21.659-24.176-40.918-35.645-47.114a.569.569 0 01.541-1c6.646 3.592 14.5 10.512 21 18.512 5.409 6.652 12.438 17.145 15.208 29.351a.568.568 0 01-.429.68.538.538 0 01-.122.013z"/><path data-name="Path 2177" d="M4342.707 2371.445a.568.568 0 01-.567-.569v-36.9a.569.569 0 111.137 0v36.9a.569.569 0 01-.57.569z"/><g data-name="Group 939"><path data-name="Path 2178" d="M4287.787 2114.493a11.443 11.443 0 0111.235-5.96" fill="#fff"/><path data-name="Path 2179" d="M4287.786 2115.062a.569.569 0 01-.49-.858 12.047 12.047 0 0111.755-6.239.569.569 0 01-.059 1.136 10.849 10.849 0 00-10.717 5.682.567.567 0 01-.489.279z"/></g><g data-name="Group 940"><path data-name="Path 2180" d="M4328.413 2105.697c3.913-.447 7.4.363 9.91 4.019" fill="#fff"/><path data-name="Path 2181" d="M4338.325 2110.289a.567.567 0 01-.469-.247c-2.108-3.066-5.085-4.265-9.378-3.776a.569.569 0 01-.129-1.13c4.687-.537 8.1.858 10.444 4.261a.568.568 0 01-.467.891z"/></g><ellipse data-name="Ellipse 240" cx="2.946" cy="7.353" rx="2.946" ry="7.353" transform="translate(4305.668 2129.224)" fill="#2a2b26"/><ellipse data-name="Ellipse 241" cx="3.06" cy="6.919" rx="3.06" ry="6.919" transform="translate(4333.299 2128.172)" fill="#2a2b26"/><g data-name="Group 941"><path data-name="Path 2182" d="M4241.907 2155.03a4.37 4.37 0 01-1.611-.814 1.784 1.784 0 01-.74-1.129 1.434 1.434 0 01.847-1.358 2.979 2.979 0 011.67-.193 6.715 6.715 0 015.892 6.095 4.68 4.68 0 01-.608 2.907c-.5.786-1.335 1.456-1.356 2.386a2.854 2.854 0 00.973 1.878 8.672 8.672 0 002.063 1.738 3.792 3.792 0 002.606.483" fill="#fff"/><path data-name="Path 2183" d="M4251.005 2167.657a4.639 4.639 0 01-2.245-.621 9.248 9.248 0 01-2.2-1.847 3.367 3.367 0 01-1.126-2.278 3.478 3.478 0 01.979-2.051 7.5 7.5 0 00.465-.628 4.156 4.156 0 00.523-2.553 6.147 6.147 0 00-5.393-5.579 2.417 2.417 0 00-1.353.139.879.879 0 00-.533.787 1.3 1.3 0 00.53.747 3.828 3.828 0 001.4.708.569.569 0 11-.292 1.1 4.974 4.974 0 01-1.821-.921 2.289 2.289 0 01-.95-1.511 2 2 0 011.162-1.93 3.487 3.487 0 011.99-.247 7.284 7.284 0 016.391 6.611 5.27 5.27 0 01-.694 3.259 8.447 8.447 0 01-.537.727 2.531 2.531 0 00-.731 1.368 2.387 2.387 0 00.821 1.478 8.237 8.237 0 001.924 1.628 3.223 3.223 0 002.21.424.569.569 0 01.239 1.112 3.591 3.591 0 01-.759.078z"/></g><path data-name="Path 2184" d="M4317.207 2371.446a.569.569 0 01-.569-.569v-62.674c.031-29.576-4-46.494-7.393-55.479-2.935-7.778-6.137-11.588-7.421-12.516a.569.569 0 01.66-.926c.16.113 3.962 2.9 7.75 12.845 3.458 9.077 7.572 26.173 7.54 56.076v62.674a.569.569 0 01-.567.569z"/><g data-name="Group 942"><path data-name="Path 2185" d="M4253.045 2271.278l26.877 29.373 22.183 19.164 59.876-46.038 19.5 24.846a784.432 784.432 0 01-76.411 65.495l-30.564-22.4s-32.792-24.4-37.6-33.517" fill="#1483de"/><path data-name="Path 2186" d="M4305.074 2364.685a.566.566 0 01-.336-.11l-30.564-22.4c-1.347-1-32.954-24.581-37.765-33.712a.569.569 0 011.006-.53c4.69 8.9 37.107 33.083 37.434 33.326l30.22 22.144a787.6 787.6 0 0075.654-64.835l-18.84-24-59.431 45.7a.569.569 0 01-.719-.021l-22.183-19.164a.447.447 0 01-.047-.047l-26.877-29.373a.568.568 0 11.838-.768l26.855 29.348 21.807 18.839 59.509-45.756a.569.569 0 01.794.1l19.5 24.846a.567.567 0 01-.049.757 788.624 788.624 0 01-76.465 65.543.573.573 0 01-.341.113z"/></g><path data-name="Path 2187" d="M4247.57 2144.135a.567.567 0 01-.538-.384 209.828 209.828 0 01-6.642-24.426c-1.641-8.876-2.859-21.864.655-33.337 3.162-10.322 12.906-14.607 17.42-14.607a11.115 11.115 0 016.132 1.921 25.53 25.53 0 011.915-2.46c3.487-3.946 9.683-7.407 13.26-7.407a9.727 9.727 0 011.525.133 21.879 21.879 0 013.315-7.512c2.621-3.76 7.748-8.242 17.289-8.242 6.208 0 10.644 1.467 13.185 4.36 3.417 3.891 2.685 9.5 2.248 12.858l-.071.55c-.37 2.924.146 5.207 1.536 6.783 1.549 1.757 4.208 2.647 7.9 2.647a28.753 28.753 0 0014.418-4.289c3.664-2.3 8.031-6.4 8.031-12.886 0-4.51-2.307-6.522-7.481-6.522a13.586 13.586 0 00-7.006 2.558c-2.479 1.72-3.9 3.8-3.9 5.711a3.594 3.594 0 002.473 3.427 5.6 5.6 0 005.813-.993.569.569 0 01.834.773 6.7 6.7 0 01-7.062 1.279 4.686 4.686 0 01-3.2-4.486c0-1.344.57-4 4.39-6.646a14.781 14.781 0 017.655-2.76c5.8 0 8.618 2.505 8.618 7.659 0 7.008-4.657 11.4-8.564 13.85a29.957 29.957 0 01-15.022 4.463c-4.036 0-6.982-1.021-8.755-3.033-1.615-1.832-2.225-4.415-1.812-7.678l.072-.554c.438-3.367 1.1-8.456-1.976-11.96-2.315-2.636-6.463-3.973-12.33-3.973-7.266 0-12.768 2.609-16.355 7.755a20.852 20.852 0 00-3.13 7.091c3.38.841 7.38 3.121 7.38 6.645 0 2.324-1.067 4.239-2.719 4.877a2.99 2.99 0 01-3.386-.841 11.811 11.811 0 01-2.8-8.01 11.393 11.393 0 01.183-1.791 8.793 8.793 0 00-1.3-.106c-3.246 0-9.159 3.348-12.408 7.024a24.447 24.447 0 00-1.862 2.4c2.438 2.073 4.356 5.586 4.356 11.249 0 6.585-2.8 10.091-4.817 10.091-2.29 0-4.713-5.011-4.713-9.749a22.477 22.477 0 013.638-11.314 9.873 9.873 0 00-5.5-1.75c-4.221 0-13.345 4.049-16.333 13.8-3.447 11.253-2.241 24.046-.624 32.8a208.6 208.6 0 006.6 24.265.569.569 0 01-.354.722.582.582 0 01-.181.025zm17.295-69.163a21.223 21.223 0 00-3.4 10.611c0 4.713 2.368 8.612 3.576 8.612 1.284 0 3.679-3.075 3.679-8.954.001-5.147-1.692-8.359-3.858-10.269zm17.329-10.07a10.155 10.155 0 00-.163 1.567 10.683 10.683 0 002.5 7.245 1.867 1.867 0 002.134.545c.919-.355 1.992-1.568 1.992-3.816.005-2.822-3.452-4.795-6.463-5.541z"/><path data-name="Path 2188" d="M4337.52 2096.356a.569.569 0 01-.251-1.08c.288-.141 28.721-14.266 32.619-28.669l.009-.03c.029-.088 2.835-8.822-1.545-15.372-2.866-4.285-8.153-6.739-15.716-7.294-.224-.009-23.952-.963-32.208 7.864a10.142 10.142 0 00-2.715 8.412.569.569 0 11-1.13.127 11.238 11.238 0 013.014-9.316c3.633-3.884 10.321-6.447 19.879-7.618a89.885 89.885 0 0113.226-.6c7.951.584 13.53 3.209 16.6 7.8 4.636 6.941 1.863 15.78 1.681 16.34-1.705 6.275-7.822 13.131-18.183 20.376a129.21 129.21 0 01-15.029 9 .567.567 0 01-.251.06z"/><path data-name="Path 2189" d="M4361.659 2371.28a.569.569 0 01-.569-.569v-53.013a.569.569 0 111.138 0v53.013a.568.568 0 01-.569.569z"/><path data-name="Path 2190" d="M4085.244 2376.394s-5.335-116.672-5.608-122.143-.41-7.8 5.2-7.8 144.438-1.231 162.63-1.094 31.14.638 34.742.73 5.973.729 5.653 6.884-14.225 123.42-14.225 123.42z" fill="#a6acb9"/><path data-name="Path 2191" d="M4698.012 2371.45a.585.585 0 01-.079-.006.57.57 0 01-.487-.642l20.018-145.272a9.609 9.609 0 00-9.519-10.92h-246.493a5.909 5.909 0 00-5.9 6.168l6.587 150.077a.571.571 0 01-.569.6h-192.086a.571.571 0 01-.562-.664c4.649-27.851 9.58-65.451 15.52-118.329a9.932 9.932 0 00-9.868-11.038h-194.335a7.3 7.3 0 00-7.286 7.695l6.659 121.735a.57.57 0 01-.569.6h-30.821a.57.57 0 010-1.14h30.219l-6.626-121.134a8.436 8.436 0 018.424-8.9h194.335a11.071 11.071 0 0111 12.3c-5.9 52.48-10.8 89.922-15.417 117.726h190.815l-6.562-149.481a7.049 7.049 0 017.042-7.358h246.494a10.749 10.749 0 0110.648 12.215l-20.017 145.272a.571.571 0 01-.565.496z"/><path data-name="Path 2192" d="M4172.098 2291.591v6.793l-8.938 7.842 8.526 8.389-3.009 2.736-9.209-7.887v-7.021z" fill="#fff"/><path data-name="Path 2193" d="M4174.013 2302.761l-2.689 2.69 8.845 8.891-8.845 7.66v6.7l12.355-10.714v-6.93z" fill="#fff"/><path data-name="Path 2194" d="M4846.352 2371.521h-151.03a.569.569 0 110-1.137h151.03a.569.569 0 010 1.137z"/></g></svg>
